<svg width="24" height="25" viewBox="0 0 24 25" fill="none" xmlns="http://www.w3.org/2000/svg">
<path d="M6.29977 5.5H21L19 12.5H7.37671M20 16.5H8L6 3.5H3M9 20.5C9 21.0523 8.55228 21.5 8 21.5C7.44772 21.5 7 21.0523 7 20.5C7 19.9477 7.44772 19.5 8 19.5C8.55228 19.5 9 19.9477 9 20.5ZM20 20.5C20 21.0523 19.5523 21.5 19 21.5C18.4477 21.5 18 21.0523 18 20.5C18 19.9477 18.4477 19.5 19 19.5C19.5523 19.5 20 19.9477 20 20.5Z" stroke="black" stroke-width="1.5" stroke-linecap="round" stroke-linejoin="round"/>
</svg>
