<svg width="64" height="64" viewBox="0 0 64 64" fill="none" xmlns="http://www.w3.org/2000/svg">
<path d="M30.0121 0L27.9443 4.70013C26.874 4.76516 25.809 4.89934 24.7561 5.10184L21.5931 1.03552L18.1838 2.18952L18.1668 7.36304C16.7226 8.10208 15.3386 8.99558 14.0313 10.0384L9.21302 7.87864L6.74622 10.4908L9.21288 15.1486C8.42591 16.2655 7.73433 17.4461 7.14538 18.678L1.85529 18.8216L0.78119 22.2409L5.05233 25.3731C4.84786 26.6418 4.74801 27.9238 4.7423 29.2068L0 31.5991L0.496701 35.1495L5.70187 36.164C6.01304 37.2486 6.39889 38.3106 6.85668 39.3425L3.42637 43.582L5.34103 46.6166L10.6735 45.374C11.0109 45.7693 11.3606 46.1541 11.7221 46.5278C12.477 47.3051 13.2811 48.0336 14.1295 48.7088L13.0936 54.0261L16.2099 55.8182L20.2813 52.2888C21.4463 52.755 22.6458 53.1309 23.869 53.4131L25.1979 58.6077L28.7853 58.8995L30.9421 54.0005C32.4324 53.9112 33.9179 53.6894 35.3787 53.3326L38.8051 57.2848L42.1462 55.9533L42.0484 53.9498L34.2493 48.0621C31.9788 48.6336 29.6244 48.7865 27.3119 48.5268C22.9978 48.0426 18.852 46.1031 15.5984 42.7533C8.16174 35.096 8.37436 22.9154 16.0655 15.5121C19.7907 11.926 24.5825 10.1068 29.3797 10.0553C34.4866 10.0004 39.5982 11.9483 43.4327 15.8966C49.6734 22.3228 50.524 31.99 46.0904 39.3086L50.4338 42.5886C50.9738 41.7455 51.4615 40.8703 51.8943 39.968L57.1459 39.8242L58.22 36.405L53.9789 33.2941C54.1835 32.015 54.287 30.7218 54.2887 29.4266L59.0013 27.0427L58.5048 23.4923L53.3041 22.4778C52.8665 20.978 52.2865 19.5231 51.5719 18.1328L54.6708 13.8595L52.599 10.9303L47.4961 12.4054C47.432 12.3377 47.3698 12.2692 47.3048 12.2025C46.5016 11.3751 45.642 10.6039 44.732 9.89448L45.7086 4.87312L42.5919 3.08112L38.7199 6.43735C37.4664 5.93515 36.179 5.54426 34.8733 5.25387L33.604 0.291611L30.0121 0ZM22.1111 20.7617C20.7058 20.7777 19.3128 21.1212 18.0353 21.7464L24.1789 26.3875C26.0369 27.791 26.5639 30.4581 25.138 32.3303C23.7118 34.2036 20.9731 34.4852 19.0882 33.0617L12.949 28.4249C12.3204 31.7783 13.5108 35.3315 16.4262 37.5336C19.0408 39.5079 22.3964 39.8775 25.2869 38.8439L25.9363 38.6113L26.4838 39.0256L44.8507 52.8979L45.3982 53.3121L45.3514 53.9969C45.129 57.0469 46.3826 60.1659 48.9984 62.1415C51.914 64.3435 55.6752 64.5261 58.7504 63.0207L52.6115 58.3841C50.7266 56.9604 50.2636 54.258 51.6903 52.3864C53.1169 50.5144 55.8391 50.3028 57.6976 51.7058L63.8368 56.3427C64.464 52.9906 63.2785 49.4356 60.3639 47.2341C57.74 45.2515 54.4109 44.8587 51.5374 45.8771L50.892 46.1054L50.3445 45.6911L31.9777 31.819L31.4302 31.4047L31.4769 30.7244C31.6875 27.6964 30.4104 24.6116 27.7874 22.63C26.0832 21.3429 24.0891 20.7394 22.1112 20.7619L22.1111 20.7617ZM28.0295 32.9685L50.2934 49.7868L48.7607 51.8029L26.4925 34.9805L28.0295 32.9685Z" fill="#FAFAFA"/>
</svg>
