<svg width="55" height="55" viewBox="0 0 55 55" fill="none" xmlns="http://www.w3.org/2000/svg">
<path d="M49.5332 12.0005L50.8398 9.17383L53.6665 7.86716C53.8993 7.7611 54.0966 7.59032 54.235 7.37518C54.3734 7.16004 54.447 6.90963 54.447 6.65383C54.447 6.39802 54.3734 6.14761 54.235 5.93248C54.0966 5.71734 53.8993 5.54655 53.6665 5.44049L50.8398 4.13383L49.5332 1.33383C49.4271 1.10104 49.2563 0.903682 49.0412 0.765287C48.826 0.626892 48.5756 0.553305 48.3198 0.553305C48.064 0.553305 47.8136 0.626892 47.5985 0.765287C47.3833 0.903682 47.2126 1.10104 47.1065 1.33383L45.7998 4.16049L42.9998 5.46716C42.7671 5.57322 42.5697 5.74401 42.4313 5.95914C42.2929 6.17428 42.2193 6.42469 42.2193 6.68049C42.2193 6.9363 42.2929 7.18671 42.4313 7.40185C42.5697 7.61698 42.7671 7.78777 42.9998 7.89383L45.8265 9.20049L47.1332 12.0005C47.5865 13.0405 49.0798 13.0405 49.5332 12.0005ZM18.8665 12.0005L20.1732 9.17383L22.9998 7.86716C23.2326 7.7611 23.43 7.59032 23.5684 7.37518C23.7068 7.16004 23.7804 6.90963 23.7804 6.65383C23.7804 6.39802 23.7068 6.14761 23.5684 5.93248C23.43 5.71734 23.2326 5.54655 22.9998 5.44049L20.1732 4.16049L18.8665 1.33383C18.7637 1.10129 18.5956 0.903626 18.3826 0.76487C18.1695 0.626115 17.9207 0.552246 17.6665 0.552246C17.4123 0.552246 17.1635 0.626115 16.9505 0.76487C16.7374 0.903626 16.5693 1.10129 16.4665 1.33383L15.1598 4.16049L12.3332 5.46716C12.1004 5.57322 11.903 5.74401 11.7646 5.95914C11.6262 6.17428 11.5527 6.42469 11.5527 6.68049C11.5527 6.9363 11.6262 7.18671 11.7646 7.40185C11.903 7.61698 12.1004 7.78777 12.3332 7.89383L15.1598 9.20049L16.4665 12.0005C16.9198 13.0405 18.4132 13.0405 18.8665 12.0005ZM47.1332 32.0005L45.8265 34.8272L42.9998 36.1338C42.7671 36.2399 42.5697 36.4107 42.4313 36.6258C42.2929 36.8409 42.2193 37.0914 42.2193 37.3472C42.2193 37.603 42.2929 37.8534 42.4313 38.0685C42.5697 38.2836 42.7671 38.4544 42.9998 38.5605L45.8265 39.8672L47.1332 42.6938C47.2392 42.9266 47.41 43.124 47.6251 43.2624C47.8403 43.4008 48.0907 43.4743 48.3465 43.4743C48.6023 43.4743 48.8527 43.4008 49.0679 43.2624C49.283 43.124 49.4538 42.9266 49.5598 42.6938L50.8665 39.8672L53.6665 38.5338C53.8993 38.4278 54.0966 38.257 54.235 38.0418C54.3734 37.8267 54.447 37.5763 54.447 37.3205C54.447 37.0647 54.3734 36.8143 54.235 36.5991C54.0966 36.384 53.8993 36.2132 53.6665 36.1072L50.8398 34.8005L49.5332 31.9738C49.0798 30.9605 47.5865 30.9605 47.1332 32.0005ZM42.2265 20.3205L34.6798 12.7738C34.4331 12.5266 34.1401 12.3305 33.8175 12.1967C33.4949 12.0629 33.1491 11.994 32.7998 11.994C32.4506 11.994 32.1048 12.0629 31.7822 12.1967C31.4596 12.3305 31.1665 12.5266 30.9198 12.7738L1.10651 42.5605C0.859301 42.8072 0.663174 43.1002 0.529357 43.4228C0.39554 43.7454 0.32666 44.0912 0.32666 44.4405C0.32666 44.7897 0.39554 45.1356 0.529357 45.4582C0.663174 45.7808 0.859301 46.0738 1.10651 46.3205L8.65318 53.8672C9.69318 54.9072 11.3732 54.9072 12.4132 53.8672L42.1998 24.0805C43.2665 23.0672 43.2665 21.3605 42.2265 20.3205ZM32.8932 25.8938L29.1332 22.1338L32.8132 18.4538L36.5732 22.2138L32.8932 25.8938Z" fill="#FAFAFA"/>
</svg>
