<svg width="63" height="64" viewBox="0 0 63 64" fill="none" xmlns="http://www.w3.org/2000/svg">
<path d="M38.7292 26.3241C39.7189 26.3236 40.6824 26.6427 41.476 27.2339C42.2697 27.8251 42.8512 28.6569 43.134 29.6053H41.3438C40.2675 29.6053 39.249 29.8416 38.3329 30.2616H24.2865C24.1125 30.2616 23.9455 30.3307 23.8225 30.4538C23.6994 30.5769 23.6303 30.7438 23.6303 30.9178V43.384C23.6303 46.8122 25.8195 49.7286 28.875 50.8127V54.9051C26.2663 54.3078 23.9374 52.8429 22.2694 50.75C20.6014 48.6572 19.693 46.0602 19.6927 43.384V30.9178C19.6927 28.3821 21.7481 26.3241 24.2865 26.3241H38.7292ZM50.5312 29.6053C52.4403 29.6053 54.2717 30.3615 55.6246 31.7085C56.9774 33.0555 57.7417 34.8835 57.75 36.7926V30.9178C57.75 29.6995 57.266 28.5311 56.4045 27.6696C55.543 26.8081 54.3746 26.3241 53.1562 26.3241H44.2969C45.0634 27.2507 45.6015 28.3716 45.8299 29.6053H50.5312ZM9.84375 26.3241H18.7189C17.7928 27.4426 17.2272 28.8154 17.0966 30.2616H9.84375C9.6697 30.2616 9.50278 30.3307 9.37971 30.4538C9.25664 30.5769 9.1875 30.7438 9.1875 30.9178V39.4465C9.18733 40.4384 9.41195 41.4175 9.84447 42.3102C10.277 43.2029 10.9062 43.9859 11.6847 44.6006C12.4633 45.2152 13.3711 45.6454 14.3398 45.8589C15.3085 46.0723 16.3129 46.0635 17.2778 45.8331C17.5009 47.1561 17.9077 48.4187 18.4669 49.5921C16.911 50.0083 15.2802 50.0612 13.7006 49.7465C12.1211 49.4318 10.6351 48.7581 9.35746 47.7773C8.07987 46.7966 7.04495 45.5352 6.33272 44.0907C5.62049 42.6461 5.25003 41.0571 5.25 39.4465V30.9178C5.25 28.3821 7.308 26.3241 9.84375 26.3241ZM31.5 7.9491C33.5886 7.9491 35.5916 8.77878 37.0685 10.2556C38.5453 11.7325 39.375 13.7355 39.375 15.8241C39.375 17.9127 38.5453 19.9157 37.0685 21.3926C35.5916 22.8694 33.5886 23.6991 31.5 23.6991C29.4114 23.6991 27.4084 22.8694 25.9315 21.3926C24.4547 19.9157 23.625 17.9127 23.625 15.8241C23.625 13.7355 24.4547 11.7325 25.9315 10.2556C27.4084 8.77878 29.4114 7.9491 31.5 7.9491ZM31.5 11.8866C30.4557 11.8866 29.4542 12.3014 28.7158 13.0399C27.9773 13.7783 27.5625 14.7798 27.5625 15.8241C27.5625 16.8684 27.9773 17.8699 28.7158 18.6083C29.4542 19.3468 30.4557 19.7616 31.5 19.7616C32.5443 19.7616 33.5458 19.3468 34.2842 18.6083C35.0227 17.8699 35.4375 16.8684 35.4375 15.8241C35.4375 14.7798 35.0227 13.7783 34.2842 13.0399C33.5458 12.3014 32.5443 11.8866 31.5 11.8866ZM48.5625 10.5741C50.303 10.5741 51.9722 11.2655 53.2029 12.4962C54.4336 13.7269 55.125 15.3961 55.125 17.1366C55.125 18.8771 54.4336 20.5463 53.2029 21.777C51.9722 23.0077 50.303 23.6991 48.5625 23.6991C46.822 23.6991 45.1528 23.0077 43.9221 21.777C42.6914 20.5463 42 18.8771 42 17.1366C42 15.3961 42.6914 13.7269 43.9221 12.4962C45.1528 11.2655 46.822 10.5741 48.5625 10.5741ZM48.5625 14.5116C47.8663 14.5116 47.1986 14.7882 46.7063 15.2804C46.2141 15.7727 45.9375 16.4404 45.9375 17.1366C45.9375 17.8328 46.2141 18.5005 46.7063 18.9928C47.1986 19.485 47.8663 19.7616 48.5625 19.7616C49.2587 19.7616 49.9264 19.485 50.4187 18.9928C50.9109 18.5005 51.1875 17.8328 51.1875 17.1366C51.1875 16.4404 50.9109 15.7727 50.4187 15.2804C49.9264 14.7882 49.2587 14.5116 48.5625 14.5116ZM14.4375 10.5741C16.178 10.5741 17.8472 11.2655 19.0779 12.4962C20.3086 13.7269 21 15.3961 21 17.1366C21 18.8771 20.3086 20.5463 19.0779 21.777C17.8472 23.0077 16.178 23.6991 14.4375 23.6991C12.697 23.6991 11.0278 23.0077 9.79711 21.777C8.5664 20.5463 7.875 18.8771 7.875 17.1366C7.875 15.3961 8.5664 13.7269 9.79711 12.4962C11.0278 11.2655 12.697 10.5741 14.4375 10.5741ZM14.4375 14.5116C13.7413 14.5116 13.0736 14.7882 12.5813 15.2804C12.0891 15.7727 11.8125 16.4404 11.8125 17.1366C11.8125 17.8328 12.0891 18.5005 12.5813 18.9928C13.0736 19.485 13.7413 19.7616 14.4375 19.7616C15.1337 19.7616 15.8014 19.485 16.2937 18.9928C16.7859 18.5005 17.0625 17.8328 17.0625 17.1366C17.0625 16.4404 16.7859 15.7727 16.2937 15.2804C15.8014 14.7882 15.1337 14.5116 14.4375 14.5116ZM36.75 39.4491H35.4375C34.3932 39.4491 33.3917 39.8639 32.6533 40.6024C31.9148 41.3408 31.5 42.3423 31.5 43.3866V47.3241H38.0625V46.6678C38.0625 46.1457 38.2699 45.6449 38.6391 45.2757C39.0083 44.9065 39.5091 44.6991 40.0312 44.6991C40.5534 44.6991 41.0542 44.9065 41.4234 45.2757C41.7926 45.6449 42 46.1457 42 46.6678V47.3241H49.875V46.6678C49.875 46.1457 50.0824 45.6449 50.4516 45.2757C50.8208 44.9065 51.3216 44.6991 51.8438 44.6991C52.3659 44.6991 52.8667 44.9065 53.2359 45.2757C53.6051 45.6449 53.8125 46.1457 53.8125 46.6678V47.3241H60.375V43.3866C60.375 42.3423 59.9602 41.3408 59.2217 40.6024C58.4833 39.8639 57.4818 39.4491 56.4375 39.4491H55.125V36.8241C55.125 35.6058 54.641 34.4373 53.7795 33.5758C52.918 32.7143 51.7496 32.2303 50.5312 32.2303H41.3438C40.1254 32.2303 38.957 32.7143 38.0955 33.5758C37.234 34.4373 36.75 35.6058 36.75 36.8241V39.4491ZM40.6875 36.8241C40.6875 36.65 40.7566 36.4831 40.8797 36.3601C41.0028 36.237 41.1697 36.1678 41.3438 36.1678H50.5312C50.7053 36.1678 50.8722 36.237 50.9953 36.3601C51.1184 36.4831 51.1875 36.65 51.1875 36.8241V39.4491H40.6875V36.8241ZM31.5 56.5116V51.2616H38.0625V53.2303C38.0625 53.7525 38.2699 54.2533 38.6391 54.6225C39.0083 54.9917 39.5091 55.1991 40.0312 55.1991C40.5534 55.1991 41.0542 54.9917 41.4234 54.6225C41.7926 54.2533 42 53.7525 42 53.2303V51.2616H49.875V53.2303C49.875 53.7525 50.0824 54.2533 50.4516 54.6225C50.8208 54.9917 51.3216 55.1991 51.8438 55.1991C52.3659 55.1991 52.8667 54.9917 53.2359 54.6225C53.6051 54.2533 53.8125 53.7525 53.8125 53.2303V51.2616H60.375V56.5116C60.375 57.5559 59.9602 58.5574 59.2217 59.2958C58.4833 60.0343 57.4818 60.4491 56.4375 60.4491H35.4375C34.3932 60.4491 33.3917 60.0343 32.6533 59.2958C31.9148 58.5574 31.5 57.5559 31.5 56.5116Z" fill="#1D5AFF"/>
</svg>
