<svg width="68" height="68" viewBox="0 0 68 68" fill="none" xmlns="http://www.w3.org/2000/svg">
<path d="M29.8696 8.5H12.0616C11.117 8.5 10.2111 8.87524 9.54317 9.54317C8.87524 10.2111 8.5 11.117 8.5 12.0616V38.18C8.5 39.1246 8.87524 40.0305 9.54317 40.6984C10.2111 41.3664 11.117 41.7416 12.0616 41.7416H47.6776C48.6222 41.7416 49.5281 41.3664 50.196 40.6984C50.864 40.0305 51.2392 39.1246 51.2392 38.18V32.244M29.8696 41.7416V51.2392M17.9976 51.2392H41.7416" stroke="#1D5AFF" stroke-width="5" stroke-linecap="round" stroke-linejoin="round"/>
<path d="M45.3038 20.372C47.2708 20.372 48.8654 18.7774 48.8654 16.8104C48.8654 14.8434 47.2708 13.2488 45.3038 13.2488C43.3368 13.2488 41.7422 14.8434 41.7422 16.8104C41.7422 18.7774 43.3368 20.372 45.3038 20.372Z" fill="#1D5AFF" stroke="#1D5AFF" stroke-width="5"/>
<path d="M45.3033 25.1208V20.372M45.3033 13.2488V8.5M38.1064 20.9656L42.2189 18.5912M48.3876 15.0296L52.5001 12.6552M38.1064 12.6552L42.2189 15.0296M48.3876 18.5912L52.5001 20.9656" stroke="#1D5AFF" stroke-width="5" stroke-linecap="round" stroke-linejoin="round"/>
</svg>
