<svg width="29" height="29" viewBox="0 0 29 29" fill="none" xmlns="http://www.w3.org/2000/svg">
<path d="M17.3775 9.87925C17.8764 9.87896 18.3621 10.0505 18.7622 10.3684C19.1623 10.6863 19.4554 11.1335 19.598 11.6434H18.6955C18.1529 11.6434 17.6395 11.7704 17.1777 11.9962H10.0966C10.0089 11.9962 9.92474 12.0334 9.8627 12.0996C9.80066 12.1657 9.76581 12.2555 9.76581 12.3491V19.0514C9.76581 20.8946 10.8694 22.4626 12.4098 23.0455V25.2457C11.0947 24.9246 9.92065 24.137 9.07979 23.0118C8.23892 21.8865 7.78097 20.4903 7.78084 19.0514V12.3491C7.78084 10.9857 8.81699 9.87925 10.0966 9.87925H17.3775ZM23.3271 11.6434C24.2895 11.6434 25.2127 12.05 25.8947 12.7742C26.5767 13.4984 26.962 14.4812 26.9662 15.5076V12.3491C26.9662 11.694 26.7222 11.0658 26.2879 10.6026C25.8536 10.1395 25.2646 9.87925 24.6504 9.87925H20.1842C20.5706 10.3774 20.8419 10.9801 20.957 11.6434H23.3271ZM2.81579 9.87925H7.2899C6.82303 10.4806 6.53791 11.2187 6.47209 11.9962H2.81579C2.72805 11.9962 2.6439 12.0334 2.58186 12.0996C2.51982 12.1657 2.48496 12.2555 2.48496 12.3491V16.9344C2.48488 17.4678 2.59811 17.9942 2.81615 18.4741C3.03419 18.954 3.35137 19.3751 3.74387 19.7055C4.13636 20.036 4.59397 20.2673 5.08231 20.382C5.57065 20.4968 6.07702 20.4921 6.5634 20.3682C6.67588 21.0795 6.88099 21.7583 7.16286 22.3892C6.37851 22.613 5.55641 22.6414 4.76012 22.4722C3.96383 22.303 3.2147 21.9408 2.57064 21.4135C1.92659 20.8862 1.40486 20.208 1.04582 19.4314C0.686769 18.6547 0.500016 17.8004 0.5 16.9344V12.3491C0.5 10.9857 1.53747 9.87925 2.81579 9.87925ZM13.7331 0C14.786 0 15.7957 0.446077 16.5402 1.2401C17.2848 2.03412 17.703 3.11105 17.703 4.23396C17.703 5.35688 17.2848 6.4338 16.5402 7.22783C15.7957 8.02185 14.786 8.46793 13.7331 8.46793C12.6802 8.46793 11.6704 8.02185 10.9259 7.22783C10.1814 6.4338 9.76316 5.35688 9.76316 4.23396C9.76316 3.11105 10.1814 2.03412 10.9259 1.2401C11.6704 0.446077 12.6802 0 13.7331 0ZM13.7331 2.11698C13.2066 2.11698 12.7018 2.34002 12.3295 2.73703C11.9573 3.13404 11.7481 3.6725 11.7481 4.23396C11.7481 4.79542 11.9573 5.33388 12.3295 5.73089C12.7018 6.12791 13.2066 6.35094 13.7331 6.35094C14.2595 6.35094 14.7644 6.12791 15.1367 5.73089C15.5089 5.33388 15.718 4.79542 15.718 4.23396C15.718 3.6725 15.5089 3.13404 15.1367 2.73703C14.7644 2.34002 14.2595 2.11698 13.7331 2.11698ZM22.3346 1.41132C23.212 1.41132 24.0535 1.78305 24.6739 2.44474C25.2943 3.10642 25.6429 4.00386 25.6429 4.93962C25.6429 5.87539 25.2943 6.77282 24.6739 7.43451C24.0535 8.09619 23.212 8.46793 22.3346 8.46793C21.4572 8.46793 20.6157 8.09619 19.9953 7.43451C19.3749 6.77282 19.0263 5.87539 19.0263 4.93962C19.0263 4.00386 19.3749 3.10642 19.9953 2.44474C20.6157 1.78305 21.4572 1.41132 22.3346 1.41132ZM22.3346 3.5283C21.9836 3.5283 21.647 3.67699 21.3989 3.94167C21.1507 4.20634 21.0113 4.56532 21.0113 4.93962C21.0113 5.31393 21.1507 5.6729 21.3989 5.93758C21.647 6.20225 21.9836 6.35094 22.3346 6.35094C22.6856 6.35094 23.0221 6.20225 23.2703 5.93758C23.5185 5.6729 23.6579 5.31393 23.6579 4.93962C23.6579 4.56532 23.5185 4.20634 23.2703 3.94167C23.0221 3.67699 22.6856 3.5283 22.3346 3.5283ZM5.13158 1.41132C6.00899 1.41132 6.85046 1.78305 7.47088 2.44474C8.0913 3.10642 8.43985 4.00386 8.43985 4.93962C8.43985 5.87539 8.0913 6.77282 7.47088 7.43451C6.85046 8.09619 6.00899 8.46793 5.13158 8.46793C4.25417 8.46793 3.4127 8.09619 2.79228 7.43451C2.17186 6.77282 1.82331 5.87539 1.82331 4.93962C1.82331 4.00386 2.17186 3.10642 2.79228 2.44474C3.4127 1.78305 4.25417 1.41132 5.13158 1.41132ZM5.13158 3.5283C4.78062 3.5283 4.44403 3.67699 4.19586 3.94167C3.94769 4.20634 3.80827 4.56532 3.80827 4.93962C3.80827 5.31393 3.94769 5.6729 4.19586 5.93758C4.44403 6.20225 4.78062 6.35094 5.13158 6.35094C5.48254 6.35094 5.81913 6.20225 6.0673 5.93758C6.31547 5.6729 6.45489 5.31393 6.45489 4.93962C6.45489 4.56532 6.31547 4.20634 6.0673 3.94167C5.81913 3.67699 5.48254 3.5283 5.13158 3.5283ZM16.3797 16.9359H15.718C15.1916 16.9359 14.6867 17.1589 14.3145 17.5559C13.9422 17.9529 13.7331 18.4914 13.7331 19.0528V21.1698H17.0414V20.817C17.0414 20.5363 17.1459 20.267 17.332 20.0685C17.5182 19.87 17.7706 19.7585 18.0338 19.7585C18.2971 19.7585 18.5495 19.87 18.7356 20.0685C18.9218 20.267 19.0263 20.5363 19.0263 20.817V21.1698H22.9962V20.817C22.9962 20.5363 23.1008 20.267 23.2869 20.0685C23.4731 19.87 23.7255 19.7585 23.9887 19.7585C24.2519 19.7585 24.5044 19.87 24.6905 20.0685C24.8766 20.267 24.9812 20.5363 24.9812 20.817V21.1698H28.2895V19.0528C28.2895 18.4914 28.0803 17.9529 27.7081 17.5559C27.3358 17.1589 26.831 16.9359 26.3045 16.9359H25.6429V15.5245C25.6429 14.8695 25.3989 14.2413 24.9646 13.7781C24.5303 13.3149 23.9413 13.0547 23.3271 13.0547H18.6955C18.0813 13.0547 17.4923 13.3149 17.058 13.7781C16.6237 14.2413 16.3797 14.8695 16.3797 15.5245V16.9359ZM18.3647 15.5245C18.3647 15.431 18.3995 15.3412 18.4616 15.275C18.5236 15.2089 18.6077 15.1717 18.6955 15.1717H23.3271C23.4148 15.1717 23.499 15.2089 23.561 15.275C23.623 15.3412 23.6579 15.431 23.6579 15.5245V16.9359H18.3647V15.5245ZM13.7331 26.1094V23.2868H17.0414V24.3453C17.0414 24.626 17.1459 24.8952 17.332 25.0938C17.5182 25.2923 17.7706 25.4038 18.0338 25.4038C18.2971 25.4038 18.5495 25.2923 18.7356 25.0938C18.9218 24.8952 19.0263 24.626 19.0263 24.3453V23.2868H22.9962V24.3453C22.9962 24.626 23.1008 24.8952 23.2869 25.0938C23.4731 25.2923 23.7255 25.4038 23.9887 25.4038C24.2519 25.4038 24.5044 25.2923 24.6905 25.0938C24.8766 24.8952 24.9812 24.626 24.9812 24.3453V23.2868H28.2895V26.1094C28.2895 26.6709 28.0803 27.2094 27.7081 27.6064C27.3358 28.0034 26.831 28.2264 26.3045 28.2264H15.718C15.1916 28.2264 14.6867 28.0034 14.3145 27.6064C13.9422 27.2094 13.7331 26.6709 13.7331 26.1094Z" fill="#1D5AFF"/>
</svg>
