<svg width="64" height="64" viewBox="0 0 64 64" fill="none" xmlns="http://www.w3.org/2000/svg">
<path d="M31.9998 58.6671C25.8221 57.1115 20.7216 53.5666 16.6985 48.0324C12.6754 42.4982 10.6647 36.3542 10.6665 29.6004V13.3337L31.9998 5.33374L53.3332 13.3337V29.6004C53.3332 36.356 51.3225 42.5009 47.3012 48.0351C43.2798 53.5693 38.1794 57.1133 31.9998 58.6671ZM31.9998 53.0671C36.3109 51.7337 39.9109 49.1 42.7998 45.1657C45.6887 41.2315 47.3776 36.8431 47.8665 32.0004H31.9998V11.0004L15.9998 17.0004V30.8004C15.9998 31.1115 16.0443 31.5115 16.1332 32.0004H31.9998V53.0671Z" fill="#FAFAFA"/>
</svg>
