<svg width="38" height="38" viewBox="0 0 38 38" fill="none" xmlns="http://www.w3.org/2000/svg">
<path d="M18.5 2.5H4.75C4.02065 2.5 3.32118 2.78973 2.80546 3.30546C2.28973 3.82118 2 4.52065 2 5.25V25.4167C2 26.146 2.28973 26.8455 2.80546 27.3612C3.32118 27.8769 4.02065 28.1667 4.75 28.1667H32.25C32.9793 28.1667 33.6788 27.8769 34.1945 27.3612C34.7103 26.8455 35 26.146 35 25.4167V20.8333M18.5 28.1667V35.5M9.33333 35.5H27.6667" stroke="#1D5AFF" stroke-width="4" stroke-linecap="round" stroke-linejoin="round"/>
<path d="M30.4165 11.6667C31.9353 11.6667 33.1665 10.4355 33.1665 8.91667C33.1665 7.39789 31.9353 6.16667 30.4165 6.16667C28.8977 6.16667 27.6665 7.39789 27.6665 8.91667C27.6665 10.4355 28.8977 11.6667 30.4165 11.6667Z" fill="#1D5AFF" stroke="#1D5AFF" stroke-width="4"/>
<path d="M30.4167 15.3333V11.6667M30.4167 6.16667V2.5M24.8599 12.125L28.0352 10.2917M32.7982 7.54167L35.9735 5.70833M24.8599 5.70833L28.0352 7.54167M32.7982 10.2917L35.9735 12.125" stroke="#1D5AFF" stroke-width="4" stroke-linecap="round" stroke-linejoin="round"/>
</svg>
