<svg width="64" height="64" viewBox="0 0 64 64" fill="none" xmlns="http://www.w3.org/2000/svg">
<mask id="mask0_239_358" style="mask-type:luminance" maskUnits="userSpaceOnUse" x="3" y="8" width="58" height="49">
<path d="M32.0002 53.3339H9.3335C8.27263 53.3339 7.25521 52.9125 6.50507 52.1623C5.75492 51.4122 5.3335 50.3948 5.3335 49.3339V14.6672C5.3335 13.6064 5.75492 12.589 6.50507 11.8388C7.25521 11.0887 8.27263 10.6672 9.3335 10.6672H54.6668C55.7277 10.6672 56.7451 11.0887 57.4953 11.8388C58.2454 12.589 58.6668 13.6064 58.6668 14.6672V30.7459" stroke="white" stroke-width="4" stroke-linecap="round" stroke-linejoin="round"/>
<path d="M5.3335 14.6672C5.3335 13.6064 5.75492 12.589 6.50507 11.8388C7.25521 11.0887 8.27263 10.6672 9.3335 10.6672H54.6668C55.7277 10.6672 56.7451 11.0887 57.4953 11.8388C58.2454 12.589 58.6668 13.6064 58.6668 14.6672V26.6672H5.3335V14.6672Z" fill="white" stroke="white" stroke-width="4"/>
<path d="M10.6667 18.6673C10.6667 17.1946 11.8606 16.0007 13.3333 16.0007C14.8061 16.0007 16 17.1946 16 18.6673C16 20.1401 14.8061 21.334 13.3333 21.334C11.8606 21.334 10.6667 20.1401 10.6667 18.6673Z" fill="black"/>
<path d="M18.6667 18.6673C18.6667 17.1946 19.8606 16.0007 21.3333 16.0007C22.8061 16.0007 24 17.1946 24 18.6673C24 20.1401 22.8061 21.334 21.3333 21.334C19.8606 21.334 18.6667 20.1401 18.6667 18.6673Z" fill="black"/>
<path d="M49.3335 49.334C51.5426 49.334 53.3335 47.5431 53.3335 45.334C53.3335 43.1248 51.5426 41.334 49.3335 41.334C47.1244 41.334 45.3335 43.1248 45.3335 45.334C45.3335 47.5431 47.1244 49.334 49.3335 49.334Z" stroke="white" stroke-width="4"/>
<path d="M49.3336 54.6672V49.3338M49.3336 41.3338V36.0005M41.251 50.0005L45.8696 47.3338M52.7976 43.3338L57.4163 40.6672M41.251 40.6672L45.8696 43.3338M52.7976 47.3338L57.4163 50.0005" stroke="white" stroke-width="4" stroke-linecap="round" stroke-linejoin="round"/>
</mask>
<g mask="url(#mask0_239_358)">
<path d="M0 0.000488281H64V64.0005H0V0.000488281Z" fill="#FAFAFA"/>
</g>
</svg>
