<svg width="38" height="39" viewBox="0 0 38 39" fill="none" xmlns="http://www.w3.org/2000/svg">
<path d="M3.6798 23.9314C2.84642 21.9589 2.50001 21.2759 2.50001 19C2.50001 13.7385 4.96266 9.05228 8.79819 6.03097M34.2072 23.9872C35.0406 22.0148 35.5 21.2759 35.5 19C35.5 13.7366 33.0355 9.04876 29.1975 6.02757M11.6692 9.83333C13.5819 8.66856 16.6187 8 19.0026 8C21.3401 8 24.4483 8.71021 26.3359 9.83333M11.6667 9.83333L8.79819 6.03097M26.3333 9.83333L29.1975 6.02757M29.1975 6.02757C26.3907 3.8181 22.8493 2.5 19 2.5C15.1488 2.5 11.6057 3.81945 8.79819 6.03097M11.8498 35.6755C9.0968 36.9592 5.82441 35.7681 4.54068 33.0152L2.99108 29.692C1.70735 26.9391 2.8984 23.6667 5.65137 22.3829C7.48668 21.5271 9.66828 22.3212 10.5241 24.1565L13.6233 30.8027C14.4791 32.638 13.6851 34.8196 11.8498 35.6755ZM25.9932 35.6754C24.1579 34.8196 23.3639 32.638 24.2197 30.8027L27.3189 24.1565C28.1747 22.3211 30.3563 21.5271 32.1916 22.3829C34.9446 23.6667 36.1356 26.9391 34.8519 29.692L33.3023 33.0152C32.0186 35.7681 28.7462 36.9592 25.9932 35.6754Z" stroke="#1D5AFF" stroke-width="4" stroke-linecap="round" stroke-linejoin="round"/>
</svg>
