<svg width="71" height="71" viewBox="0 0 71 71" fill="none" xmlns="http://www.w3.org/2000/svg">
<path d="M69.5 14.1412L55 28.4746C55 28.4746 50.6667 28.4746 46.3333 24.1412C42 19.8079 42 15.4746 42 15.4746L56.5 0.974551C48.3333 -1.02545 38.5 1.64122 32.5 7.64122C23.5 16.6412 31.5 28.1412 29.1667 30.4746C16.5 43.6412 3.50001 53.6412 3.16668 54.1412C-0.666655 57.9746 -0.833322 64.1412 2.83334 67.8079C6.50001 71.4746 12.6667 71.3079 16.5 67.4746C17 66.9746 27.6667 53.4746 40.1667 40.9746C42.5 38.6412 53.5 47.1412 62.8333 37.9746C68.6667 31.9746 71.5 22.3079 69.5 14.1412ZM10.6667 64.3079C8.33334 64.3079 6.50001 62.4746 6.50001 60.1412C6.50001 57.6412 8.33334 55.8079 10.6667 55.8079C13 55.8079 14.8333 57.6412 14.8333 59.9746C14.8333 62.3079 13 64.3079 10.6667 64.3079Z" fill="#FAFAFA"/>
</svg>
