<svg width="116" height="18" viewBox="0 0 116 18" fill="none" xmlns="http://www.w3.org/2000/svg">
<g opacity="0.8">
<path fill-rule="evenodd" clip-rule="evenodd" d="M29.5808 16.7961H26.8526L27.0231 15.7974H26.9744C26.341 16.6986 25.1231 17.1128 24.0512 17.1128C21.1525 17.1128 19.8858 14.823 20.373 12.1678C20.9089 9.14727 23.4179 7.24725 25.8782 7.24725C27.3641 7.24725 28.0705 7.97803 28.3141 8.53829H28.3628L28.5333 7.56392H31.2616L29.5808 16.7961ZM24.9769 14.555C26.7064 14.555 27.5346 13.0935 27.7051 12.2165C27.9 11.096 27.3885 9.87805 25.8295 9.87805C24.2705 9.87805 23.3205 11.2178 23.15 12.2409C22.9551 13.0935 23.3205 14.555 24.9769 14.555Z" fill="#FAFAFA"/>
<path fill-rule="evenodd" clip-rule="evenodd" d="M32.7469 7.58794H35.329L35.1585 8.56231H35.2072C35.4995 8.12385 36.1572 7.27127 37.7406 7.27127L37.229 10.0482C35.9624 10.0969 35.0367 10.3405 34.7688 11.7534L33.8431 16.8201H31.1149L32.7469 7.58794Z" fill="#FAFAFA"/>
<path fill-rule="evenodd" clip-rule="evenodd" d="M39.5434 4.00806H42.2717L41.005 10.9261H41.0537L44.1961 7.58886H47.4358L43.246 11.6325L45.6332 16.7967H42.5396L40.7858 12.3633H40.737L39.9332 16.7967H37.205L39.5434 4.00806Z" fill="#FAFAFA"/>
<path fill-rule="evenodd" clip-rule="evenodd" d="M55.2311 13.9213C54.5978 14.9444 53.8183 15.7483 52.9413 16.2598C52.0888 16.7957 51.1144 17.088 50.1887 17.088C47.5579 17.088 45.731 14.9444 46.2425 12.2162C46.7054 9.65848 49.1656 7.27127 51.9426 7.27127C54.7196 7.27127 56.3516 9.48796 55.8401 12.3136C55.7914 12.679 55.7183 12.8252 55.6452 13.0444H48.8003C48.7515 14.1406 49.5554 14.7739 50.6272 14.7739C51.4798 14.7739 51.9913 14.3842 52.4541 13.897H55.2311V13.9213ZM53.3067 11.1688C53.2824 10.6328 52.9413 9.5854 51.5285 9.5854C50.1157 9.5854 49.3849 10.6085 49.1657 11.1688H53.3067Z" fill="#FAFAFA"/>
<path fill-rule="evenodd" clip-rule="evenodd" d="M87.6775 16.7961H84.9493L85.1198 15.7974H85.0711C84.4378 16.6986 83.2198 17.1128 82.148 17.1128C79.2492 17.1128 77.9826 14.823 78.4697 12.1678C79.0056 9.14727 81.5146 7.24725 83.9749 7.24725C85.4608 7.24725 86.1673 7.97803 86.4109 8.53829H86.4596L86.6301 7.56392H89.3583L87.6775 16.7961ZM83.0736 14.555C84.8031 14.555 85.6314 13.0935 85.8019 12.2165C85.9967 11.096 85.4852 9.87805 83.9262 9.87805C82.3672 9.87805 81.4172 11.2178 81.2467 12.2409C81.0762 13.0935 81.4416 14.555 83.0736 14.555Z" fill="#FAFAFA"/>
<path fill-rule="evenodd" clip-rule="evenodd" d="M105.143 13.288C104.266 15.3829 102.122 17.088 99.6377 17.088C96.8608 17.088 95.1556 14.8957 95.6428 12.1675C96.1543 9.4636 98.639 7.27127 101.367 7.27127C103.803 7.27127 105.46 8.87898 105.484 11.1444H102.707C102.536 10.5111 102.098 9.85335 100.977 9.85335C99.6864 9.80463 98.6146 10.8764 98.371 12.1918C98.1274 13.5316 98.8095 14.5303 100.101 14.5303C101.221 14.5303 101.903 13.8726 102.293 13.288H105.143Z" fill="#FAFAFA"/>
<path fill-rule="evenodd" clip-rule="evenodd" d="M107.725 4.00806H110.453L109.649 8.44144H109.698C110.307 7.61322 111.306 7.29655 112.256 7.29655C113.133 7.29655 114.107 7.61322 114.57 8.31964C115.179 9.22093 115.106 10.0491 114.813 11.6812L113.863 16.821H111.135L112.061 11.803C112.134 11.3645 112.402 9.87863 110.94 9.87863C109.406 9.87863 109.162 11.2427 109.089 11.7056L108.163 16.821H105.435L107.725 4.00806Z" fill="#FAFAFA"/>
<path fill-rule="evenodd" clip-rule="evenodd" d="M16.6703 3.9826L11.8228 11.266V3.9826H9.4843L0.934204 16.7956H4.24706L9.09455 9.51215V16.7956H11.4574L16.3049 9.51215V16.7956H19.0331V3.9826H16.6703Z" fill="#FAFAFA"/>
<path fill-rule="evenodd" clip-rule="evenodd" d="M62.7583 7.58889H61.0288L61.5403 4.88501H59.1288L58.9339 5.93246C58.7147 7.12606 57.9839 7.49145 56.9608 7.58889H56.9121L56.5223 9.68378H57.8621L56.5467 16.7967H59.2749L60.5903 9.68378H62.3198L62.7583 7.58889Z" fill="#FAFAFA"/>
<path fill-rule="evenodd" clip-rule="evenodd" d="M82.4163 0.743408L77.1547 4.00755H78.6163L73.7688 11.2666V3.98319H71.4059L66.5584 11.2666V3.98319H63.8302V16.7961H66.193L71.0405 9.51273V16.7961H73.379L81.9291 4.00755H83.2445L82.4163 0.743408Z" fill="#FAFAFA"/>
<path fill-rule="evenodd" clip-rule="evenodd" d="M96.2274 7.58889H94.4979L95.0094 4.88501H92.5978L92.403 5.93246C92.1837 7.12606 91.453 7.49145 90.4299 7.58889H90.3811L89.9914 9.68378H91.3312L90.0158 16.7967H92.744L94.0594 9.68378H95.7889L96.2274 7.58889Z" fill="#FAFAFA"/>
</g>
</svg>
