<svg width="115" height="18" viewBox="0 0 115 18" fill="none" xmlns="http://www.w3.org/2000/svg">
<g opacity="0.8">
<path fill-rule="evenodd" clip-rule="evenodd" d="M29.5479 16.7961H26.8197L26.9902 15.7974H26.9415C26.3081 16.6986 25.0902 17.1128 24.0183 17.1128C21.1196 17.1128 19.8529 14.823 20.3401 12.1678C20.876 9.14727 23.385 7.24725 25.8453 7.24725C27.3312 7.24725 28.0376 7.97803 28.2812 8.53829H28.3299L28.5004 7.56392H31.2287L29.5479 16.7961ZM24.944 14.555C26.6735 14.555 27.5017 13.0935 27.6722 12.2165C27.8671 11.096 27.3556 9.87805 25.7966 9.87805C24.2376 9.87805 23.2876 11.2178 23.1171 12.2409C22.9222 13.0935 23.2876 14.555 24.944 14.555Z" fill="#FAFAFA"/>
<path fill-rule="evenodd" clip-rule="evenodd" d="M32.714 7.58794H35.2961L35.1256 8.56231H35.1743C35.4666 8.12385 36.1243 7.27127 37.7077 7.27127L37.1961 10.0482C35.9295 10.0969 35.0038 10.3405 34.7359 11.7534L33.8102 16.8201H31.082L32.714 7.58794Z" fill="#FAFAFA"/>
<path fill-rule="evenodd" clip-rule="evenodd" d="M39.5105 4.00806H42.2388L40.9721 10.9261H41.0208L44.1632 7.58886H47.4029L43.2131 11.6325L45.6004 16.7967H42.5067L40.7529 12.3633H40.7041L39.9003 16.7967H37.1721L39.5105 4.00806Z" fill="#FAFAFA"/>
<path fill-rule="evenodd" clip-rule="evenodd" d="M55.1982 13.9213C54.5649 14.9444 53.7854 15.7483 52.9084 16.2598C52.0559 16.7957 51.0815 17.088 50.1558 17.088C47.525 17.088 45.6981 14.9444 46.2096 12.2162C46.6725 9.65848 49.1328 7.27127 51.9097 7.27127C54.6867 7.27127 56.3187 9.48796 55.8072 12.3136C55.7585 12.679 55.6854 12.8252 55.6123 13.0444H48.7674C48.7186 14.1406 49.5225 14.7739 50.5943 14.7739C51.4469 14.7739 51.9584 14.3842 52.4212 13.897H55.1982V13.9213ZM53.2738 11.1688C53.2495 10.6328 52.9084 9.5854 51.4956 9.5854C50.0828 9.5854 49.352 10.6085 49.1328 11.1688H53.2738Z" fill="#FAFAFA"/>
<path fill-rule="evenodd" clip-rule="evenodd" d="M87.6446 16.7961H84.9164L85.0869 15.7974H85.0382C84.4049 16.6986 83.1869 17.1128 82.1151 17.1128C79.2163 17.1128 77.9497 14.823 78.4368 12.1678C78.9728 9.14727 81.4818 7.24725 83.942 7.24725C85.4279 7.24725 86.1344 7.97803 86.378 8.53829H86.4267L86.5972 7.56392H89.3254L87.6446 16.7961ZM83.0407 14.555C84.7702 14.555 85.5985 13.0935 85.769 12.2165C85.9638 11.096 85.4523 9.87805 83.8933 9.87805C82.3343 9.87805 81.3843 11.2178 81.2138 12.2409C81.0433 13.0935 81.4087 14.555 83.0407 14.555Z" fill="#FAFAFA"/>
<path fill-rule="evenodd" clip-rule="evenodd" d="M105.11 13.288C104.233 15.3829 102.089 17.088 99.6048 17.088C96.8279 17.088 95.1227 14.8957 95.6099 12.1675C96.1214 9.4636 98.6061 7.27127 101.334 7.27127C103.77 7.27127 105.427 8.87898 105.451 11.1444H102.674C102.504 10.5111 102.065 9.85335 100.945 9.85335C99.6535 9.80463 98.5817 10.8764 98.3381 12.1918C98.0945 13.5316 98.7766 14.5303 100.068 14.5303C101.188 14.5303 101.87 13.8726 102.26 13.288H105.11Z" fill="#FAFAFA"/>
<path fill-rule="evenodd" clip-rule="evenodd" d="M107.692 4.00806H110.42L109.616 8.44144H109.665C110.274 7.61322 111.273 7.29655 112.223 7.29655C113.1 7.29655 114.074 7.61322 114.537 8.31964C115.146 9.22093 115.073 10.0491 114.781 11.6812L113.831 16.821H111.102L112.028 11.803C112.101 11.3645 112.369 9.87863 110.907 9.87863C109.373 9.87863 109.129 11.2427 109.056 11.7056L108.131 16.821H105.402L107.692 4.00806Z" fill="#FAFAFA"/>
<path fill-rule="evenodd" clip-rule="evenodd" d="M16.6374 3.9826L11.7899 11.266V3.9826H9.4514L0.901306 16.7956H4.21416L9.06165 9.51215V16.7956H11.4245L16.272 9.51215V16.7956H19.0002V3.9826H16.6374Z" fill="#FAFAFA"/>
<path fill-rule="evenodd" clip-rule="evenodd" d="M62.7254 7.58889H60.9959L61.5074 4.88501H59.0959L58.901 5.93246C58.6818 7.12606 57.951 7.49145 56.9279 7.58889H56.8792L56.4894 9.68378H57.8292L56.5138 16.7967H59.242L60.5574 9.68378H62.2869L62.7254 7.58889Z" fill="#FAFAFA"/>
<path fill-rule="evenodd" clip-rule="evenodd" d="M82.3833 0.743408L77.1217 4.00755H78.5833L73.7358 11.2666V3.98319H71.373L66.5255 11.2666V3.98319H63.7972V16.7961H66.1601L71.0076 9.51273V16.7961H73.3461L81.8961 4.00755H83.2115L82.3833 0.743408Z" fill="#FAFAFA"/>
<path fill-rule="evenodd" clip-rule="evenodd" d="M96.1945 7.58889H94.465L94.9765 4.88501H92.5649L92.3701 5.93246C92.1508 7.12606 91.4201 7.49145 90.397 7.58889H90.3482L89.9585 9.68378H91.2983L89.9829 16.7967H92.7111L94.0265 9.68378H95.756L96.1945 7.58889Z" fill="#FAFAFA"/>
</g>
</svg>
