<svg width="18" height="18" viewBox="0 0 18 18" fill="none" xmlns="http://www.w3.org/2000/svg">
<path d="M3.26353 9.56489L5.7957 6.53145C6.05236 6.20145 6.1807 6.03645 6.24795 5.8514C6.30745 5.68766 6.33208 5.51328 6.32023 5.33946C6.30684 5.14302 6.22921 4.94894 6.07395 4.56078L5.4817 3.08017C5.25193 2.50574 5.13704 2.21852 4.93886 2.03027C4.76422 1.86438 4.54537 1.75248 4.30864 1.70803C4.03999 1.65759 3.73988 1.73261 3.13968 1.88266L1.50023 2.29258C1.50023 10.6259 7.33331 16.4592 15.6669 16.4592L16.0766 14.8196C16.2266 14.2194 16.3017 13.9193 16.2512 13.6506C16.2068 13.4139 16.0949 13.195 15.929 13.0204C15.7407 12.8222 15.4535 12.7073 14.8791 12.4775L13.5578 11.949C13.115 11.7719 12.8936 11.6833 12.6728 11.6766C12.4777 11.6706 12.2839 11.7103 12.1069 11.7927C11.9067 11.8859 11.7381 12.0545 11.4008 12.3918L8.82885 14.9233" stroke="black" stroke-width="2" stroke-linecap="round" stroke-linejoin="round"/>
</svg>
