<svg width="10" height="18" viewBox="0 0 10 18" fill="none" xmlns="http://www.w3.org/2000/svg">
<path fill-rule="evenodd" clip-rule="evenodd" d="M0.779091 9.98926C0.544752 9.75684 0.413108 9.44165 0.413108 9.11301C0.413108 8.78437 0.544752 8.46918 0.779091 8.23676L7.85034 1.22554C7.96565 1.10716 8.10358 1.01275 8.25608 0.94779C8.40859 0.882835 8.57261 0.848645 8.73859 0.847215C8.90456 0.845785 9.06916 0.877144 9.22278 0.939461C9.3764 1.00178 9.51597 1.09381 9.63333 1.21018C9.7507 1.32655 9.84352 1.46493 9.90637 1.61724C9.96922 1.76956 10.0008 1.93276 9.9994 2.09733C9.99796 2.26189 9.96348 2.42452 9.89797 2.57573C9.83246 2.72694 9.73723 2.8637 9.61784 2.97803L3.43034 9.11301L9.61784 15.248C9.84554 15.4817 9.97153 15.7948 9.96868 16.1198C9.96584 16.4447 9.83437 16.7556 9.60261 16.9854C9.37085 17.2152 9.05734 17.3455 8.72959 17.3483C8.40185 17.3512 8.08609 17.2262 7.85034 17.0005L0.779091 9.98926Z" fill="black"/>
</svg>
