<svg width="98" height="24" viewBox="0 0 98 24" fill="none" xmlns="http://www.w3.org/2000/svg">
<g opacity="0.8" clip-path="url(#clip0_621_8764)">
<path d="M23.2974 12.1995C23.2974 18.4862 18.2453 23.5832 12.0138 23.5832C5.78165 23.5832 0.730286 18.4862 0.730286 12.1995C0.730286 5.91197 5.78203 0.815765 12.0138 0.815765C18.2453 0.815765 23.2974 5.91236 23.2974 12.1995Z" fill="#FAFAFA"/>
<path d="M13.5179 12.1995H10.3211V8.78438H13.5179C13.7401 8.78438 13.9602 8.82854 14.1656 8.91436C14.3709 9.00017 14.5575 9.12595 14.7147 9.28451C14.8718 9.44307 14.9965 9.63131 15.0816 9.83848C15.1666 10.0457 15.2104 10.2677 15.2104 10.4919C15.2104 10.7162 15.1666 10.9382 15.0816 11.1454C14.9965 11.3526 14.8718 11.5408 14.7147 11.6994C14.5575 11.8579 14.3709 11.9837 14.1656 12.0695C13.9602 12.1553 13.7401 12.1995 13.5179 12.1995ZM13.5179 6.50763H8.06439V17.8914H10.3211V14.4762H13.5179C15.6989 14.4762 17.4671 12.6924 17.4671 10.4919C17.4671 8.2915 15.6989 6.50763 13.5179 6.50763Z" fill="#DA552F"/>
<path d="M35.1509 10.8081C35.1509 10.1816 34.674 9.80206 34.0542 9.80206H32.3929V11.8024H34.0546C34.6743 11.8024 35.1509 11.4228 35.1509 10.8081ZM30.8196 15.9938V8.40479H34.2753C35.8822 8.40479 36.7566 9.50033 36.7566 10.8081C36.7566 12.1045 35.871 13.1997 34.2753 13.1997H32.3929V15.9938H30.8196ZM37.7144 15.9938V10.4612H39.1202V11.1876C39.5081 10.7181 40.1622 10.3273 40.8271 10.3273V11.7128C40.7267 11.6907 40.6052 11.6798 40.4392 11.6798C39.9738 11.6798 39.3529 11.9476 39.1202 12.2949V15.9938H37.7144ZM45.5597 13.1549C45.5597 12.3167 45.0711 11.5902 44.1851 11.5902C43.3095 11.5902 42.8229 12.3167 42.8229 13.1553C42.8229 14.0044 43.3095 14.7309 44.1851 14.7309C45.0711 14.7309 45.5597 14.0044 45.5597 13.1549ZM41.36 13.1549C41.36 11.6241 42.4235 10.3273 44.1851 10.3273C45.9579 10.3273 47.0214 11.6237 47.0214 13.1549C47.0214 14.6861 45.9579 15.9938 44.1851 15.9938C42.4235 15.9938 41.36 14.6861 41.36 13.1549ZM51.7556 14.1161V12.2049C51.5229 11.8468 51.0135 11.5902 50.5477 11.5902C49.7397 11.5902 49.1855 12.2271 49.1855 13.1553C49.1855 14.0935 49.7397 14.7309 50.5477 14.7309C51.0135 14.7309 51.5229 14.4743 51.7556 14.1161ZM51.7556 15.9938V15.1669C51.3342 15.703 50.7588 15.9938 50.1047 15.9938C48.7645 15.9938 47.7342 14.966 47.7342 13.1549C47.7342 11.4006 48.7425 10.3273 50.1047 10.3273C50.7361 10.3273 51.3342 10.5959 51.7556 11.1542V8.40479H53.1734V15.9938H51.7556ZM58.1846 15.9938V15.1778C57.8195 15.5804 57.177 15.9938 56.3014 15.9938C55.1275 15.9938 54.5738 15.3456 54.5738 14.2948V10.4612H55.98V13.7361C55.98 14.4852 56.3678 14.7309 56.9659 14.7309C57.5085 14.7309 57.9411 14.4291 58.1846 14.1157V10.4612H59.5916V15.9938H58.1846ZM60.6482 13.1549C60.6482 11.5011 61.8444 10.3273 63.4845 10.3273C64.5812 10.3273 65.2457 10.8081 65.6003 11.2998L64.6804 12.1711C64.4261 11.7911 64.0382 11.5902 63.5509 11.5902C62.6976 11.5902 62.0999 12.2162 62.0999 13.1553C62.0999 14.0935 62.6976 14.7309 63.5509 14.7309C64.0382 14.7309 64.4261 14.5074 64.6804 14.1383L65.6003 15.0104C65.2457 15.5021 64.5812 15.9938 63.4845 15.9938C61.8444 15.9938 60.6482 14.8204 60.6482 13.1549ZM66.8101 14.5074V11.7019H65.9241V10.4612H66.8101V8.98565H68.2175V10.4612H69.3022V11.7019H68.2175V14.1274C68.2175 14.4739 68.3938 14.7309 68.7045 14.7309C68.9144 14.7309 69.1151 14.6526 69.1915 14.5634L69.4913 15.6469C69.281 15.8377 68.904 15.9938 68.3167 15.9938C67.3307 15.9938 66.8101 15.4799 66.8101 14.5074ZM78.3144 15.9938V12.7188H74.8244V15.9938H73.2523V8.40479H74.8244V11.3329H78.3144V8.40517H79.8985V15.9938H78.3144ZM84.9333 15.9938V15.1778C84.5679 15.5804 83.9253 15.9938 83.0501 15.9938C81.8759 15.9938 81.3221 15.3456 81.3221 14.2948V10.4612H82.7283V13.7361C82.7283 14.4852 83.1161 14.7309 83.7146 14.7309C84.2572 14.7309 84.6898 14.4291 84.9333 14.1157V10.4612H86.3403V15.9938H84.9333ZM91.35 15.9938V12.5966C91.35 11.8475 90.9633 11.5906 90.3644 11.5906C89.8106 11.5906 89.39 11.9036 89.1457 12.2166V15.9942H87.7395V10.4612H89.1457V11.1542C89.4896 10.752 90.1541 10.3273 91.0181 10.3273C92.2036 10.3273 92.7685 10.9977 92.7685 12.048V15.9938H91.3503H91.35ZM94.4448 14.5074V11.7019H93.5596V10.4612H94.4452V8.98565H95.8526V10.4612H96.9377V11.7019H95.8526V14.1274C95.8526 14.4739 96.0293 14.7309 96.3396 14.7309C96.5499 14.7309 96.7502 14.6526 96.8273 14.5634L97.126 15.6469C96.9161 15.8377 96.5387 15.9938 95.9518 15.9938C94.9658 15.9938 94.4448 15.4799 94.4448 14.5074Z" fill="#FAFAFA"/>
</g>
<defs>
<clipPath id="clip0_621_8764">
<rect width="96.4737" height="22.9699" fill="white" transform="translate(0.730286 0.815765)"/>
</clipPath>
</defs>
</svg>
