<svg width="10" height="18" viewBox="0 0 10 18" fill="none" xmlns="http://www.w3.org/2000/svg">
<path fill-rule="evenodd" clip-rule="evenodd" d="M9.22032 8.23145C9.45466 8.46387 9.5863 8.77905 9.5863 9.10769C9.5863 9.43634 9.45466 9.75152 9.22032 9.98394L2.1491 16.9952C2.03379 17.1135 1.89586 17.208 1.74336 17.2729C1.59085 17.3379 1.42683 17.3721 1.26086 17.3735C1.09488 17.3749 0.930285 17.3436 0.776665 17.2812C0.623045 17.2189 0.48348 17.1269 0.366115 17.0105C0.248749 16.8942 0.155933 16.7558 0.0930825 16.6035C0.0302317 16.4511 -0.00139507 16.2879 4.71961e-05 16.1234C0.00148946 15.9588 0.0359722 15.7962 0.101483 15.645C0.166994 15.4938 0.262221 15.357 0.381608 15.2427L6.56908 9.10769L0.381608 2.97272C0.153912 2.73897 0.0279193 2.4259 0.0307673 2.10093C0.0336153 1.77597 0.165076 1.46512 0.396835 1.23532C0.628594 1.00553 0.942109 0.875183 1.26985 0.87236C1.5976 0.869535 1.91335 0.994459 2.1491 1.22022L9.22032 8.23145Z" fill="black"/>
</svg>
