<svg width="44" height="44" viewBox="0 0 44 44" fill="none" xmlns="http://www.w3.org/2000/svg">
<path d="M20.7203 39.6273C21.1262 39.8641 21.3292 39.9825 21.6156 40.0439C21.8379 40.0916 22.1621 40.0916 22.3844 40.0439C22.6708 39.9825 22.8738 39.8641 23.2796 39.6273C26.8511 37.5437 36.6667 30.9988 36.6667 22V12.1C36.6667 11.0771 36.6667 10.5657 36.4698 10.1759C36.2952 9.83029 36.0226 9.55445 35.6791 9.37583C35.2917 9.17435 34.7715 9.1682 33.7311 9.1559C28.2832 9.09148 25.1416 8.64161 22 5.5C18.8584 8.64161 15.7168 9.09148 10.2689 9.1559C9.2285 9.1682 8.70831 9.17435 8.32086 9.37583C7.97736 9.55445 7.70475 9.83029 7.53021 10.1759C7.33333 10.5657 7.33333 11.0771 7.33333 12.1V22C7.33333 30.9988 17.1489 37.5437 20.7203 39.6273Z" stroke="#1D5AFF" stroke-width="4" stroke-linecap="round" stroke-linejoin="round"/>
</svg>
