<svg width="49" height="37" viewBox="0 0 49 37" fill="none" xmlns="http://www.w3.org/2000/svg">
<g opacity="0.7">
<path d="M17.1583 9.95093V13.6573H19.1595V16.3968H17.1583V19.8534C17.1583 20.2724 17.1982 20.5464 17.2779 20.6753C17.3975 20.8848 17.6048 20.9895 17.8998 20.9895C18.1709 20.9895 18.5456 20.909 19.024 20.7478L19.2951 23.3262C18.3941 23.5276 17.557 23.6324 16.7756 23.6324C15.8747 23.6324 15.2049 23.5115 14.7744 23.2778C14.3438 23.0361 14.0329 22.6735 13.8256 22.1901C13.6183 21.7066 13.5146 20.917 13.5146 19.8293V16.3968H12.1752V13.6573H13.5146V11.8686L17.1583 9.95093ZM19.3908 18.5643C19.3908 17.0737 19.8931 15.8489 20.8897 14.8901C21.8863 13.9232 23.2338 13.4398 24.94 13.4398C26.8854 13.4398 28.3525 14.0038 29.3411 15.1399C30.1384 16.0504 30.5371 17.1784 30.5371 18.5079C30.5371 20.0065 30.0427 21.2393 29.0541 22.1981C28.0654 23.157 26.6941 23.6324 24.948 23.6324C23.3853 23.6324 22.1255 23.2375 21.1688 22.4399C19.9808 21.4488 19.3908 20.1596 19.3908 18.5643ZM23.1142 18.5562C23.1142 19.4264 23.2896 20.071 23.6404 20.4819C23.9912 20.9009 24.4297 21.1104 24.9639 21.1104C25.4981 21.1104 25.9366 20.909 26.2874 20.498C26.6303 20.0871 26.8057 19.4264 26.8057 18.524C26.8057 17.678 26.6303 17.0495 26.2874 16.6386C25.9366 16.2276 25.5141 16.0181 24.9958 16.0181C24.4536 16.0181 24.0072 16.2276 23.6563 16.6466C23.2896 17.0575 23.1142 17.6941 23.1142 18.5562ZM31.2227 27.1212V13.6573H34.6671V15.0996C35.1455 14.4953 35.584 14.0844 35.9747 13.8668C36.5089 13.5767 37.1068 13.4317 37.7527 13.4317C39.0363 13.4317 40.0329 13.9313 40.7346 14.9304C41.4362 15.9295 41.787 17.1623 41.787 18.6287C41.787 20.2483 41.4043 21.4891 40.6389 22.3432C39.8735 23.1973 38.9087 23.6243 37.7367 23.6243C37.1706 23.6243 36.6524 23.5276 36.1899 23.3342C35.7195 23.1409 35.3049 22.8508 34.9382 22.464V27.1212H31.2227ZM34.9143 18.5643C34.9143 19.3378 35.0737 19.9098 35.3926 20.2805C35.7116 20.6511 36.1182 20.8445 36.6045 20.8445C37.0351 20.8445 37.3939 20.6672 37.6809 20.3047C37.9679 19.9501 38.1114 19.3378 38.1114 18.4837C38.1114 17.6941 37.96 17.1139 37.657 16.7433C37.354 16.3727 36.9872 16.1873 36.5567 16.1873C36.0863 16.1873 35.6956 16.3727 35.3847 16.7514C35.0737 17.1139 34.9143 17.7263 34.9143 18.5643Z" fill="#FAFAFA"/>
<path d="M8.37171 23.8741C9.69272 23.8741 10.7636 22.7918 10.7636 21.4569C10.7636 20.1219 9.69272 19.0396 8.37171 19.0396C7.05069 19.0396 5.9798 20.1219 5.9798 21.4569C5.9798 22.7918 7.05069 23.8741 8.37171 23.8741Z" fill="#FAFAFA"/>
</g>
</svg>
