<svg width="34" height="48" viewBox="0 0 34 48" fill="none" xmlns="http://www.w3.org/2000/svg">
<path d="M6.88889 26.4444L2.85705 31.4842C2.5394 31.8813 2.38057 32.0798 2.26763 32.3009C2.16742 32.497 2.09419 32.7058 2.04991 32.9216C2 33.1648 2 33.419 2 33.9275V46L11.7778 33.7778M26.4444 26.4444L30.4763 31.4842C30.7939 31.8813 30.9528 32.0798 31.0657 32.3009C31.1659 32.497 31.2391 32.7058 31.2834 32.9216C31.3333 33.1648 31.3333 33.419 31.3333 33.9275V46L21.5556 33.7778M16.6667 26.4444V43.5556M6.88889 14.2222H26.4444M16.6667 2L7.8768 11.8886C7.51135 12.2997 7.32862 12.5053 7.19835 12.7389C7.08281 12.9462 6.99805 13.1691 6.94674 13.4007C6.88889 13.6619 6.88889 13.9369 6.88889 14.487V24C6.88889 27.4225 6.88889 29.1338 7.55496 30.4411C8.14085 31.5909 9.07573 32.5258 10.2256 33.1117C11.5329 33.7778 13.2441 33.7778 16.6667 33.7778C20.0892 33.7778 21.8005 33.7778 23.1077 33.1117C24.2576 32.5258 25.1925 31.5909 25.7784 30.4411C26.4444 29.1338 26.4444 27.4225 26.4444 24V14.487C26.4444 13.9369 26.4444 13.6619 26.3866 13.4007C26.3353 13.1691 26.2505 12.9462 26.135 12.7389C26.0047 12.5053 25.822 12.2997 25.4565 11.8886L16.6667 2Z" stroke="#1D5AFF" stroke-width="4" stroke-linecap="round" stroke-linejoin="round"/>
</svg>
