<svg width="80" height="81" viewBox="0 0 80 81" fill="none" xmlns="http://www.w3.org/2000/svg">
<path d="M40 7.47455C21.6 7.47455 6.66666 22.4079 6.66666 40.8079C6.66666 59.2079 21.6 74.1412 40 74.1412C58.4 74.1412 73.3333 59.2079 73.3333 40.8079C73.3333 22.4079 58.4 7.47455 40 7.47455ZM64.8666 31.2079L55.6 35.0412C54.7651 32.795 53.4539 30.756 51.7565 29.0644C50.0591 27.3727 48.0157 26.0685 45.7666 25.2412L49.6 15.9745C56.6 18.6412 62.1666 24.2079 64.8666 31.2079ZM40 50.8079C34.4667 50.8079 30 46.3412 30 40.8079C30 35.2745 34.4667 30.8079 40 30.8079C45.5333 30.8079 50 35.2745 50 40.8079C50 46.3412 45.5333 50.8079 40 50.8079ZM30.4333 15.9412L34.3333 25.2079C32.0577 26.0372 29.9902 27.3525 28.2747 29.0622C26.5592 30.772 25.2369 32.8351 24.4 35.1079L15.1333 31.2412C16.4699 27.7617 18.5226 24.6018 21.1582 21.9661C23.7939 19.3305 26.9538 17.2778 30.4333 15.9412ZM15.1333 50.3745L24.4 46.5412C25.2311 48.8081 26.5479 50.8658 28.258 52.5702C29.9682 54.2746 32.0303 55.5844 34.3 56.4079L30.4 65.6745C26.9279 64.3318 23.7756 62.2767 21.1462 59.6415C18.5167 57.0063 16.4685 53.8495 15.1333 50.3745ZM49.6 65.6745L45.7666 56.4079C48.0262 55.5707 50.0764 54.2514 51.7745 52.5417C53.4727 50.8321 54.7781 48.7731 55.6 46.5079L64.8666 50.4079C63.5256 53.8756 61.4749 57.0248 58.8459 59.6538C56.2169 62.2828 53.0677 64.3335 49.6 65.6745Z" fill="#FAFAFA"/>
</svg>
