<svg width="68" height="48" viewBox="0 0 68 48" fill="none" xmlns="http://www.w3.org/2000/svg">
<path d="M15.6665 47.4745C11.5087 47.4745 7.96873 46.029 5.04651 43.1379C2.12428 40.2468 0.664284 36.7112 0.666506 32.5312C0.666506 28.5823 2.0254 25.1601 4.74317 22.2645C7.46095 19.3668 10.6532 17.809 14.3198 17.5912C15.0687 12.7356 17.3021 8.72453 21.0198 5.55786C24.7376 2.3912 29.0643 0.807861 33.9998 0.807861C39.5709 0.807861 44.2976 2.74786 48.1798 6.62786C52.0621 10.5079 54.0021 15.2345 53.9998 20.8079V24.1412H56.0498C59.2432 24.2434 61.9221 25.4156 64.0865 27.6579C66.2509 29.8979 67.3332 32.6145 67.3332 35.8079C67.3332 39.0768 66.2276 41.839 64.0165 44.0945C61.8054 46.3479 59.0643 47.4745 55.7932 47.4745H37.7165C36.1832 47.4745 34.9032 46.9612 33.8765 45.9345C32.8476 44.9056 32.3332 43.6245 32.3332 42.0912V22.7412L25.3332 29.7012L22.9732 27.4079L33.9998 16.3845L45.0265 27.4112L42.6665 29.7045L35.6665 22.7445V42.0912C35.6665 42.6023 35.8798 43.0723 36.3065 43.5012C36.7354 43.9279 37.2054 44.1412 37.7165 44.1412H55.6665C57.9998 44.1412 59.9721 43.3356 61.5832 41.7245C63.1943 40.1134 63.9998 38.1412 63.9998 35.8079C63.9998 33.4745 63.1943 31.5023 61.5832 29.8912C59.9721 28.2801 57.9998 27.4745 55.6665 27.4745H50.6665V20.8079C50.6665 16.1968 49.0409 12.2656 45.7898 9.01453C42.5387 5.76342 38.6087 4.13897 33.9998 4.1412C29.3887 4.1412 25.4587 5.76675 22.2098 9.01786C18.961 12.269 17.3354 16.199 17.3332 20.8079H15.5398C12.4443 20.8079 9.74762 21.9468 7.44984 24.2245C5.14984 26.5023 3.99984 29.2523 3.99984 32.4745C3.99984 35.6968 5.13873 38.4468 7.41651 40.7245C9.69428 43.0023 12.4443 44.1412 15.6665 44.1412H23.9998V47.4745H15.6665Z" fill="#FAFAFA"/>
</svg>
