<svg width="80" height="81" viewBox="0 0 80 81" fill="none" xmlns="http://www.w3.org/2000/svg">
<path d="M20 10.8079V20.8079H10V10.8079H20ZM5 5.80786V25.8079H25V5.80786H5ZM45 18.3079V28.3079H35V18.3079H45ZM30 13.3079V33.3079H50V13.3079H30ZM20 40.8079V50.8079H10V40.8079H20ZM5 35.8079V55.8079H25V35.8079H5Z" fill="#FAFAFA"/>
<path d="M55 25.8079V40.8079H40V55.8079H25V75.8079H75V25.8079H55ZM45 45.8079H55V55.8079H45V45.8079ZM40 70.8079H30V60.8079H40V70.8079ZM55 70.8079H45V60.8079H55V70.8079ZM70 70.8079H60V60.8079H70V70.8079ZM70 55.8079H60V45.8079H70V55.8079ZM60 40.8079V30.8079H70V40.8079H60Z" fill="#FAFAFA"/>
</svg>
