<svg width="48" height="48" viewBox="0 0 48 48" fill="none" xmlns="http://www.w3.org/2000/svg">
<path d="M31.3333 24C31.3333 28.0501 28.0501 31.3333 24 31.3333C19.9499 31.3333 16.6667 28.0501 16.6667 24C16.6667 19.9499 19.9499 16.6667 24 16.6667C28.0501 16.6667 31.3333 19.9499 31.3333 24Z" stroke="#1D5AFF" stroke-width="4" stroke-linecap="round" stroke-linejoin="round"/>
<path d="M26.2113 2.14678C25.7082 2 25.1388 2 24 2C22.8612 2 22.2918 2 21.7887 2.14678C21.0524 2.36162 20.402 2.80196 19.9291 3.40582C19.606 3.81836 19.3945 4.34706 18.9716 5.40441C18.3636 6.92437 16.6763 7.70706 15.1232 7.18955L13.7279 6.72464C12.7382 6.39473 12.2433 6.22977 11.7581 6.20151C11.0454 6.15999 10.336 6.32744 9.71713 6.68332C9.29581 6.92558 8.92696 7.29444 8.18925 8.03215C7.4052 8.8162 7.01316 9.20823 6.76412 9.65572C6.39822 10.3132 6.24343 11.0673 6.32077 11.8157C6.3734 12.3251 6.57931 12.8399 6.99111 13.8694C7.63603 15.4817 7.0156 17.3237 5.52665 18.2173L4.84829 18.6244C3.80965 19.2475 3.29033 19.5591 2.9131 19.9881C2.57928 20.3678 2.32758 20.8123 2.17379 21.2939C2 21.8381 2 22.4498 2 23.6731C2 25.1216 2 25.8459 2.2313 26.4659C2.43567 27.0137 2.76808 27.5047 3.2008 27.8979C3.69052 28.3429 4.35632 28.6092 5.68784 29.1418C7.0486 29.6861 7.74923 31.1967 7.28578 32.5871L6.75986 34.1649C6.39557 35.2577 6.21343 35.8042 6.19686 36.341C6.17694 36.9865 6.32786 37.6258 6.63435 38.1943C6.88926 38.667 7.29657 39.0743 8.11111 39.8889C8.92568 40.7035 9.33296 41.1107 9.80573 41.3656C10.3742 41.6721 11.0135 41.8231 11.659 41.8031C12.1958 41.7866 12.7423 41.6044 13.8351 41.2401L15.1233 40.8108C16.6763 40.2931 18.3636 41.0757 18.9716 42.5956C19.3945 43.653 19.606 44.1816 19.9291 44.5942C20.402 45.198 21.0524 45.6384 21.7887 45.8532C22.2918 46 22.8612 46 24 46C25.1388 46 25.7082 46 26.2113 45.8532C26.9476 45.6384 27.598 45.198 28.0709 44.5942C28.394 44.1816 28.6055 43.653 29.0284 42.5956C29.6364 41.0757 31.3237 40.2932 32.8766 40.8111L34.1639 41.2403C35.2567 41.6046 35.8032 41.7868 36.34 41.8033C36.9855 41.8232 37.6248 41.6723 38.1933 41.3658C38.666 41.1109 39.0733 40.7036 39.8879 39.8891C40.7024 39.0745 41.1097 38.6672 41.3646 38.1945C41.6711 37.626 41.822 36.9867 41.8021 36.3412C41.7856 35.8044 41.6034 35.2578 41.2391 34.1651L40.7135 32.5883C40.2499 31.1974 40.9509 29.6862 42.3122 29.1418C43.6437 28.6092 44.3095 28.3429 44.7992 27.8979C45.2319 27.5047 45.5643 27.0137 45.7687 26.4659C46 25.8459 46 25.1216 46 23.6731C46 22.4498 46 21.8381 45.8262 21.2939C45.6724 20.8123 45.4207 20.3678 45.0869 19.9881C44.7097 19.5591 44.1904 19.2475 43.1517 18.6244L42.4725 18.2168C40.9835 17.3234 40.363 15.4815 41.0079 13.8692C41.4197 12.8397 41.6256 12.3249 41.6782 11.8155C41.7556 11.0671 41.6008 10.313 41.2349 9.65554C40.9858 9.20805 40.5938 8.81602 39.8097 8.03196C39.072 7.29427 38.7032 6.9254 38.2819 6.68314C37.6629 6.32726 36.9536 6.1598 36.2409 6.20132C35.7557 6.22959 35.2608 6.39455 34.2711 6.72446L32.8767 7.18925C31.3237 7.70691 29.6364 6.92433 29.0284 5.40442C28.6055 4.34705 28.394 3.81837 28.0709 3.40582C27.598 2.80196 26.9476 2.36162 26.2113 2.14678Z" stroke="#1D5AFF" stroke-width="4" stroke-linecap="round" stroke-linejoin="round"/>
</svg>
