<svg width="44" height="44" viewBox="0 0 44 44" fill="none" xmlns="http://www.w3.org/2000/svg">
<path d="M22.0006 8.70821C19.3057 8.70831 16.6745 9.52759 14.4559 11.0574C12.2373 12.5872 10.5362 14.7553 9.57801 17.2741C8.61985 19.7929 8.44997 22.5434 9.09089 25.161C9.73181 27.7786 11.1533 30.1395 13.1667 31.9307C15.1802 33.7219 17.6906 34.8587 20.365 35.1905C23.0394 35.5222 25.7515 35.0331 28.1416 33.7882C30.5317 32.5432 32.4868 30.6011 33.7479 28.2195C35.0089 25.8378 35.5162 23.1291 35.2025 20.4525C35.0778 19.3745 35.8588 18.3332 36.9441 18.3332C37.8883 18.3332 38.7188 18.9895 38.8325 19.9282C39.3128 23.8278 38.4241 27.7732 36.3183 31.0903C34.2125 34.4073 31.0202 36.8903 27.2869 38.1149C23.5535 39.3395 19.5108 39.2298 15.8494 37.8044C12.188 36.3791 9.1351 33.7266 7.21235 30.3002C5.28959 26.8737 4.61628 22.8859 5.30745 19.0181C5.99861 15.1504 8.01136 11.6426 11.0018 9.0941C13.9923 6.54564 17.7749 5.11464 21.7033 5.04559C25.6318 4.97654 29.4623 6.27374 32.5405 8.71554V7.79154C32.5405 7.30507 32.7337 6.83852 33.0777 6.49453C33.4217 6.15054 33.8883 5.95729 34.3747 5.95729C34.8612 5.95729 35.3277 6.15054 35.6717 6.49453C36.0157 6.83852 36.209 7.30507 36.209 7.79154V12.7379L36.2713 12.8332H36.209V13.2915C36.209 13.7778 36.0158 14.2441 35.672 14.5879C35.3282 14.9317 34.8619 15.1249 34.3756 15.1249H28.8756C28.3894 15.1249 27.9231 14.9317 27.5793 14.5879C27.2355 14.2441 27.0423 13.7778 27.0423 13.2915C27.0423 12.8053 27.2355 12.339 27.5793 11.9952C27.9231 11.6514 28.3894 11.4582 28.8756 11.4582H30.0966C27.7766 9.67105 24.9292 8.70388 22.0006 8.70821Z" fill="#1D5AFF"/>
</svg>
