<svg width="44" height="44" viewBox="0 0 44 44" fill="none" xmlns="http://www.w3.org/2000/svg">
<path d="M11.0007 40.3335C9.99232 40.3335 9.12943 39.9748 8.41198 39.2573C7.69454 38.5399 7.33521 37.6764 7.33398 36.6668V18.3335C7.33398 17.3252 7.69332 16.4623 8.41198 15.7448C9.13065 15.0274 9.99354 14.6681 11.0007 14.6668H12.834V11.0002C12.834 8.46405 13.728 6.30255 15.5162 4.51566C17.3043 2.72877 19.4658 1.83472 22.0007 1.8335C24.5368 1.8335 26.6989 2.72755 28.487 4.51566C30.2751 6.30377 31.1685 8.46527 31.1673 11.0002V14.6668H33.0007C34.009 14.6668 34.8725 15.0262 35.5912 15.7448C36.3098 16.4635 36.6685 17.3264 36.6673 18.3335V36.6668C36.6673 37.6752 36.3086 38.5387 35.5912 39.2573C34.8737 39.976 34.0102 40.3347 33.0007 40.3335H11.0007ZM22.0007 31.1668C23.009 31.1668 23.8725 30.8081 24.5912 30.0907C25.3098 29.3732 25.6685 28.5097 25.6673 27.5002C25.6673 26.4918 25.3086 25.6289 24.5912 24.9115C23.8737 24.1941 23.0102 23.8347 22.0007 23.8335C20.9923 23.8335 20.1294 24.1928 19.412 24.9115C18.6945 25.6302 18.3352 26.4931 18.334 27.5002C18.334 28.5085 18.6933 29.372 19.412 30.0907C20.1307 30.8093 20.9935 31.1681 22.0007 31.1668ZM16.5007 14.6668H27.5007V11.0002C27.5007 9.47239 26.9659 8.17377 25.8965 7.10433C24.827 6.03488 23.5284 5.50016 22.0007 5.50016C20.4729 5.50016 19.1743 6.03488 18.1048 7.10433C17.0354 8.17377 16.5007 9.47239 16.5007 11.0002V14.6668Z" fill="#1D5AFF"/>
</svg>
