<svg width="26" height="26" viewBox="0 0 26 26" fill="none" xmlns="http://www.w3.org/2000/svg">
<path d="M12.5938 3.25C12.917 3.25 13.227 3.3784 13.4555 3.60696C13.6841 3.83552 13.8125 4.14552 13.8125 4.46875V11.375H20.7188C21.042 11.375 21.352 11.5034 21.5805 11.732C21.8091 11.9605 21.9375 12.2705 21.9375 12.5938C21.9375 12.917 21.8091 13.227 21.5805 13.4555C21.352 13.6841 21.042 13.8125 20.7188 13.8125H13.8125V20.7188C13.8125 21.042 13.6841 21.352 13.4555 21.5805C13.227 21.8091 12.917 21.9375 12.5938 21.9375C12.2705 21.9375 11.9605 21.8091 11.732 21.5805C11.5034 21.352 11.375 21.042 11.375 20.7188V13.8125H4.46875C4.14552 13.8125 3.83552 13.6841 3.60696 13.4555C3.3784 13.227 3.25 12.917 3.25 12.5938C3.25 12.2705 3.3784 11.9605 3.60696 11.732C3.83552 11.5034 4.14552 11.375 4.46875 11.375H11.375V4.46875C11.375 4.14552 11.5034 3.83552 11.732 3.60696C11.9605 3.3784 12.2705 3.25 12.5938 3.25Z" fill="#1D5AFF"/>
</svg>
