<svg width="44" height="44" viewBox="0 0 44 44" fill="none" xmlns="http://www.w3.org/2000/svg">
<g clip-path="url(#clip0_517_8101)">
<path d="M4.4 0C1.96827 0 0 1.96533 0 4.4V30.7824C0 33.2141 1.96827 35.1795 4.4 35.1795H15.3501L20.7797 43.3195C20.9137 43.5203 21.0951 43.685 21.308 43.799C21.5209 43.9129 21.7586 43.9725 22 43.9725C22.2414 43.9725 22.4791 43.9129 22.692 43.799C22.9049 43.685 23.0863 43.5203 23.2203 43.3195L28.6499 35.1795H39.6C42.0317 35.1795 44 33.2141 44 30.7795V4.4C44 1.96533 42.0317 0 39.6 0H4.4Z" fill="#1D5AFF"/>
</g>
<defs>
<clipPath id="clip0_517_8101">
<rect width="44" height="44" fill="white"/>
</clipPath>
</defs>
</svg>
