<svg width="18" height="18" viewBox="0 0 18 18" fill="none" xmlns="http://www.w3.org/2000/svg">
<path d="M3.2633 9.14888L5.79547 6.11543C6.05213 5.78544 6.18046 5.62044 6.24771 5.43538C6.30722 5.27164 6.33184 5.09726 6.32 4.92345C6.30661 4.72701 6.22898 4.53293 6.07372 4.14477L5.48147 2.66415C5.2517 2.08972 5.13681 1.80251 4.93862 1.61425C4.76399 1.44836 4.54514 1.33646 4.30841 1.29201C4.03975 1.24157 3.73965 1.3166 3.13945 1.46665L1.5 1.87657C1.5 10.2099 7.33308 16.0432 15.6667 16.0432L16.0764 14.4036C16.2264 13.8034 16.3014 13.5032 16.251 13.2346C16.2065 12.9979 16.0946 12.779 15.9288 12.6044C15.7405 12.4062 15.4533 12.2913 14.8789 12.0615L13.5576 11.533C13.1147 11.3559 12.8933 11.2673 12.6726 11.2605C12.4775 11.2545 12.2837 11.2943 12.1067 11.3767C11.9064 11.4699 11.7378 11.6385 11.4006 11.9758L8.82861 14.5073" stroke="black" stroke-width="2" stroke-linecap="round" stroke-linejoin="round"/>
</svg>
