<svg width="26" height="26" viewBox="0 0 26 26" fill="none" xmlns="http://www.w3.org/2000/svg">
<g clip-path="url(#clip0_556_4117)">
<path d="M26.0003 13.0793C26.0003 5.85455 20.1796 -0.00195312 13.0003 -0.00195312C5.81782 -0.000328125 -0.00292969 5.85455 -0.00292969 13.0809C-0.00292969 19.6085 4.75182 25.0198 10.9658 26.0013V16.8607H7.66707V13.0809H10.9691V10.1965C10.9691 6.91892 12.9109 5.10867 15.8798 5.10867C17.3033 5.10867 18.7902 5.3638 18.7902 5.3638V8.5813H17.1506C15.5369 8.5813 15.0332 9.59042 15.0332 10.6255V13.0793H18.6374L18.0622 16.859H15.0316V25.9997C21.2456 25.0182 26.0003 19.6069 26.0003 13.0793Z" fill="#1D5AFF"/>
</g>
<defs>
<clipPath id="clip0_556_4117">
<rect width="26" height="26" fill="white"/>
</clipPath>
</defs>
</svg>
