<svg width="37" height="37" viewBox="0 0 37 37" fill="none" xmlns="http://www.w3.org/2000/svg">
<g clip-path="url(#clip0_556_4123)">
<path d="M25.9665 26.643C25.972 27.1952 26.4242 27.6385 26.9764 27.633C27.5287 27.6275 27.9719 27.1754 27.9664 26.6231L25.9665 26.643ZM10.1469 8.80355C9.59461 8.79806 9.14247 9.24131 9.13698 9.79356C9.13149 10.3458 9.57473 10.798 10.127 10.8035L10.1469 8.80355ZM9.87196 17.3033C9.31971 17.3088 8.87646 17.761 8.88195 18.3132C8.88744 18.8655 9.33958 19.3087 9.89184 19.3032L9.87196 17.3033ZM17.4667 26.8781C17.4613 27.4304 17.9045 27.8825 18.4568 27.888C19.009 27.8935 19.4612 27.4503 19.4666 26.898L17.4667 26.8781ZM11.2751 25.4949C10.8845 25.1044 10.2514 25.1044 9.86086 25.4949C9.47033 25.8854 9.47033 26.5186 9.86086 26.9091L11.2751 25.4949ZM9.87288 26.9211C10.2634 27.3117 10.8966 27.3117 11.2871 26.9211C11.6776 26.5306 11.6776 25.8974 11.2871 25.5069L9.87288 26.9211ZM21.2809 15.4891C24.3647 18.5729 25.9263 22.6002 25.9665 26.643L27.9664 26.6231C27.9213 22.078 26.1639 17.5436 22.6951 14.0749L21.2809 15.4891ZM10.127 10.8035C14.1698 10.8436 18.1971 12.4052 21.2809 15.4891L22.6951 14.0749C19.2263 10.6061 14.6919 8.84872 10.1469 8.80355L10.127 10.8035ZM9.89184 19.3032C11.8379 19.2839 13.7866 20.0159 15.2704 21.4996L16.6846 20.0854C14.8055 18.2064 12.3332 17.2789 9.87196 17.3033L9.89184 19.3032ZM15.2704 21.4996C16.7541 22.9834 17.4861 24.9321 17.4667 26.8781L19.4666 26.898C19.4911 24.4368 18.5636 21.9645 16.6846 20.0854L15.2704 21.4996ZM9.86086 26.9091L9.87288 26.9211L11.2871 25.5069L11.2751 25.4949L9.86086 26.9091Z" fill="#1D5AFF"/>
</g>
<defs>
<clipPath id="clip0_556_4123">
<rect width="26" height="26" fill="white" transform="translate(18.3848) rotate(45)"/>
</clipPath>
</defs>
</svg>
