<svg width="19" height="23" viewBox="0 0 19 23" fill="none" xmlns="http://www.w3.org/2000/svg">
<g clip-path="url(#clip0_797_2804)">
<path d="M16.1173 1.72532C15.0831 0.559592 13.2137 0.0598145 10.8222 0.0598145H3.88122C3.6446 0.0598231 3.41574 0.143309 3.2358 0.295263C3.05585 0.447217 2.93662 0.657672 2.89953 0.888789L0.00945293 19.0161C-0.0479924 19.3735 0.231887 19.6972 0.59823 19.6972H4.88332L5.9595 12.9466L5.9261 13.158C6.00277 12.6808 6.41542 12.3288 6.90408 12.3288H8.94034C12.9406 12.3288 16.0728 10.722 16.9878 6.07366C17.015 5.93618 17.0385 5.80238 17.0588 5.67165C16.9434 5.61117 16.9434 5.61117 17.0588 5.67165C17.3313 3.95359 17.057 2.78411 16.1173 1.72532Z" fill="#27346A"/>
<path d="M7.59914 5.05275C7.71628 4.99758 7.84441 4.96899 7.97416 4.96907H13.4157C14.0601 4.96907 14.6611 5.01054 15.2103 5.09796C15.364 5.12219 15.5169 5.15113 15.6688 5.18472C15.8841 5.23169 16.0968 5.28919 16.3063 5.35699C16.5763 5.44617 16.8278 5.55003 17.0589 5.67165C17.3313 3.95293 17.057 2.78411 16.1173 1.72532C15.0825 0.559592 13.2137 0.0598145 10.8222 0.0598145H3.88063C3.3919 0.0598145 2.97612 0.411692 2.89953 0.888789L0.00945333 19.0154C-0.047992 19.3734 0.231887 19.6967 0.597637 19.6967H4.88332L7.11605 5.69426C7.138 5.55663 7.19344 5.42633 7.27759 5.31458C7.36174 5.20283 7.47209 5.11297 7.59914 5.05275Z" fill="#27346A"/>
<path d="M16.989 6.07364C16.074 10.7213 12.9419 12.3288 8.94155 12.3288H6.90469C6.41603 12.3288 6.0033 12.6808 5.92737 13.1579L4.58854 21.5515C4.53852 21.8644 4.78314 22.1478 5.10317 22.1478H8.7154C8.92232 22.1478 9.12243 22.0747 9.27975 21.9418C9.43706 21.8089 9.54125 21.6248 9.57359 21.4227L9.60877 21.2406L10.2896 16.9735L10.3334 16.7376C10.3658 16.5355 10.47 16.3515 10.6273 16.2185C10.7846 16.0856 10.9847 16.0125 11.1916 16.0125H11.7322C15.2314 16.0125 17.9713 14.6066 18.772 10.5405C19.1062 8.84132 18.9332 7.42265 18.0492 6.42618C17.781 6.12436 17.448 5.87509 17.06 5.67163C17.039 5.80302 17.0162 5.93616 16.989 6.07364Z" fill="#2790C3"/>
<path d="M16.1023 5.29408C15.9596 5.25288 15.8156 5.21641 15.6705 5.18472C15.5185 5.15168 15.3657 5.12294 15.2121 5.09855C14.6622 5.01054 14.0617 4.969 13.4167 4.969H7.9758C7.84595 4.96871 7.71773 4.99754 7.60077 5.05333C7.47358 5.11338 7.36311 5.20318 7.27892 5.31496C7.19473 5.42674 7.13936 5.55713 7.11761 5.69484L5.96113 12.9466L5.92773 13.158C6.00381 12.6808 6.41646 12.3288 6.9052 12.3288H8.94205C12.9423 12.3288 16.0745 10.722 16.9894 6.07366C17.0167 5.93618 17.0395 5.80296 17.0605 5.67165C16.8288 5.55069 16.5781 5.44617 16.308 5.35757C16.2398 5.33523 16.1713 5.31406 16.1024 5.29408" fill="#1F264F"/>
</g>
<defs>
<clipPath id="clip0_797_2804">
<rect width="19" height="22.1667" fill="white"/>
</clipPath>
</defs>
</svg>
