<svg width="30" height="40" viewBox="0 0 30 40" fill="none" xmlns="http://www.w3.org/2000/svg">
<path d="M4.00065 39.3335C2.99232 39.3335 2.12943 38.9748 1.41198 38.2573C0.69454 37.5399 0.335207 36.6764 0.333984 35.6668V17.3335C0.333984 16.3252 0.693317 15.4623 1.41198 14.7448C2.13065 14.0274 2.99354 13.6681 4.00065 13.6668H5.83398V10.0002C5.83398 7.46405 6.72804 5.30255 8.51615 3.51566C10.3043 1.72877 12.4658 0.834718 15.0007 0.833496C17.5368 0.833496 19.6989 1.72755 21.487 3.51566C23.2751 5.30377 24.1685 7.46527 24.1673 10.0002V13.6668H26.0007C27.009 13.6668 27.8725 14.0262 28.5912 14.7448C29.3098 15.4635 29.6685 16.3264 29.6673 17.3335V35.6668C29.6673 36.6752 29.3086 37.5387 28.5912 38.2573C27.8737 38.976 27.0102 39.3347 26.0007 39.3335H4.00065ZM15.0007 30.1668C16.009 30.1668 16.8725 29.8081 17.5912 29.0907C18.3098 28.3732 18.6685 27.5097 18.6673 26.5002C18.6673 25.4918 18.3086 24.6289 17.5912 23.9115C16.8737 23.1941 16.0102 22.8347 15.0007 22.8335C13.9923 22.8335 13.1294 23.1928 12.412 23.9115C11.6945 24.6302 11.3352 25.4931 11.334 26.5002C11.334 27.5085 11.6933 28.372 12.412 29.0907C13.1307 29.8093 13.9935 30.1681 15.0007 30.1668ZM9.50065 13.6668H20.5007V10.0002C20.5007 8.47239 19.9659 7.17377 18.8965 6.10433C17.827 5.03488 16.5284 4.50016 15.0007 4.50016C13.4729 4.50016 12.1743 5.03488 11.1048 6.10433C10.0354 7.17377 9.50065 8.47239 9.50065 10.0002V13.6668Z" fill="#FAFAFA"/>
</svg>
