<svg width="337" height="251" viewBox="0 0 337 251" fill="none" xmlns="http://www.w3.org/2000/svg">
<path d="M336.29 220.233H0V220.401H336.29V220.233Z" fill="#EBEBEB"/>
<path d="M302.594 231.059H280.316V231.227H302.594V231.059Z" fill="#EBEBEB"/>
<path d="M222.773 232.885H216.926V233.053H222.773V232.885Z" fill="#EBEBEB"/>
<path d="M279.644 224.814H266.736V224.982H279.644V224.814Z" fill="#EBEBEB"/>
<path d="M64.3339 225.944H35.2832V226.112H64.3339V225.944Z" fill="#EBEBEB"/>
<path d="M74.5817 225.944H70.3223V226.112H74.5817V225.944Z" fill="#EBEBEB"/>
<path d="M151.428 228.784H88.4238V228.952H151.428V228.784Z" fill="#EBEBEB"/>
<path d="M159.411 190.238H29.5363C27.4197 190.238 25.6973 188.515 25.6973 186.399V3.83908C25.6973 1.72247 27.4197 0 29.5363 0H159.411C161.527 0 163.249 1.72247 163.249 3.83908V186.399C163.249 188.515 161.527 190.238 159.411 190.238ZM29.5363 0.168817C27.5119 0.168817 25.8654 1.81529 25.8654 3.83975V186.399C25.8654 188.424 27.5119 190.07 29.5363 190.07H159.411C161.434 190.07 163.081 188.424 163.081 186.399V3.83908C163.081 1.81529 161.434 0.168145 159.411 0.168145L29.5363 0.168817Z" fill="#EBEBEB"/>
<path d="M304.888 190.238H175.014C172.898 190.238 171.176 188.515 171.176 186.399V3.83908C171.176 1.72247 172.898 0 175.014 0H304.888C307.005 0 308.727 1.72247 308.727 3.83908V186.399C308.728 188.515 307.005 190.238 304.888 190.238ZM175.014 0.168817C172.99 0.168817 171.344 1.81529 171.344 3.83975V186.399C171.344 188.424 172.99 190.07 175.014 190.07H304.888C306.912 190.07 308.559 188.424 308.559 186.399V3.83908C308.559 1.81529 306.912 0.168145 304.888 0.168145L175.014 0.168817Z" fill="#EBEBEB"/>
<path d="M113.762 32.8406H65.8379V195.41H113.762V32.8406Z" fill="#FAFAFA"/>
<path d="M106.624 32.8406H103.824L87.1094 195.41H89.9093L106.624 32.8406Z" fill="#F5F5F5"/>
<path d="M112.912 33.4695H65.5312V34.9021H112.912V33.4695Z" fill="#E0E0E0"/>
<path d="M112.912 193.988H65.5312V197.054H112.912V193.988Z" fill="#EBEBEB"/>
<path d="M112.123 196.918H67.3516V197.054H112.123V196.918Z" fill="#EBEBEB"/>
<path d="M67.3522 33.4695H112.123V196.918H114.805V31.4605H64.6699V196.918H67.3522V33.4695Z" fill="#EBEBEB"/>
<path d="M167.088 32.8406H119.164V195.41H167.088V32.8406Z" fill="#FAFAFA"/>
<path d="M153.795 32.8406H138.516L121.801 195.41H137.08L153.795 32.8406Z" fill="#F5F5F5"/>
<path d="M167.584 33.4694H118.857V34.902H167.584V33.4694Z" fill="#E0E0E0"/>
<path d="M167.584 193.988H118.857V197.054H167.584V193.988Z" fill="#EBEBEB"/>
<path d="M165.451 196.918H120.68V197.054H165.451V196.918Z" fill="#EBEBEB"/>
<path d="M120.68 33.4695H165.451V196.918H168.133V31.4605H117.998V196.918H120.68V33.4695Z" fill="#EBEBEB"/>
<path d="M219.071 32.8406H172.492V195.41H219.071V32.8406Z" fill="#FAFAFA"/>
<path d="M198.883 32.8406H196.083L179.367 195.41H182.168L198.883 32.8406Z" fill="#F5F5F5"/>
<path d="M219.565 33.4695H172.184V34.9021H219.565V33.4695Z" fill="#E0E0E0"/>
<path d="M219.565 193.988H172.184V197.054H219.565V193.988Z" fill="#EBEBEB"/>
<path d="M218.779 196.918H174.008V197.054H218.779V196.918Z" fill="#EBEBEB"/>
<path d="M174.008 33.4695H218.779V196.918H221.461V31.4605H171.326V196.918H174.008V33.4695Z" fill="#EBEBEB"/>
<path d="M273.74 32.8406H225.816V195.41H273.74V32.8406Z" fill="#FAFAFA"/>
<path d="M269.053 32.8406H253.774L237.059 195.41H252.338L269.053 32.8406Z" fill="#F5F5F5"/>
<path d="M272.893 33.4695H225.512V34.9021H272.893V33.4695Z" fill="#E0E0E0"/>
<path d="M272.893 193.988H225.512V197.054H272.893V193.988Z" fill="#EBEBEB"/>
<path d="M227.332 33.4695H272.104V196.918H274.786V31.4605H224.65V196.918H227.332V33.4695Z" fill="#EBEBEB"/>
<path d="M272.104 196.918H227.332V197.054H272.104V196.918Z" fill="#EBEBEB"/>
<path d="M98.9318 158.004H78.127V193.979H98.9318V158.004Z" fill="#EBEBEB"/>
<path d="M94.937 152.977V161.999H93.2966H83.7635H82.123V152.977H94.937Z" fill="#EBEBEB"/>
<path d="M94.9362 161.999H97.5996V159.336H94.9362V161.999Z" fill="#FAFAFA"/>
<path d="M89.778 161.999H92.4414V159.336H89.778V161.999Z" fill="#FAFAFA"/>
<path d="M84.6178 161.999H87.2812V159.336H84.6178V161.999Z" fill="#FAFAFA"/>
<path d="M79.4577 161.999H82.1211V159.336H79.4577V161.999Z" fill="#F0F0F0"/>
<path d="M94.9362 166.839H97.5996V164.176H94.9362V166.839Z" fill="#F0F0F0"/>
<path d="M89.778 166.839H92.4414V164.176H89.778V166.839Z" fill="#F0F0F0"/>
<path d="M84.6178 166.839H87.2812V164.176H84.6178V166.839Z" fill="#FAFAFA"/>
<path d="M79.4577 166.839H82.1211V164.176H79.4577V166.839Z" fill="#FAFAFA"/>
<path d="M94.9362 171.679H97.5996V169.015H94.9362V171.679Z" fill="#F0F0F0"/>
<path d="M89.778 171.679H92.4414V169.015H89.778V171.679Z" fill="#FAFAFA"/>
<path d="M84.6178 171.679H87.2812V169.015H84.6178V171.679Z" fill="#FAFAFA"/>
<path d="M89.778 157.816H92.4414V155.153H89.778V157.816Z" fill="#FAFAFA"/>
<path d="M84.6178 157.816H87.2812V155.153H84.6178V157.816Z" fill="#F0F0F0"/>
<path d="M79.4577 171.679H82.1211V169.015H79.4577V171.679Z" fill="#F0F0F0"/>
<path d="M94.9362 176.518H97.5996V173.855H94.9362V176.518Z" fill="#FAFAFA"/>
<path d="M89.778 176.518H92.4414V173.855H89.778V176.518Z" fill="#F0F0F0"/>
<path d="M84.6178 176.518H87.2812V173.855H84.6178V176.518Z" fill="#F0F0F0"/>
<path d="M79.4577 176.518H82.1211V173.855H79.4577V176.518Z" fill="#FAFAFA"/>
<path d="M94.9362 181.358H97.5996V178.695H94.9362V181.358Z" fill="#F0F0F0"/>
<path d="M89.778 181.358H92.4414V178.695H89.778V181.358Z" fill="#FAFAFA"/>
<path d="M84.6178 181.358H87.2812V178.695H84.6178V181.358Z" fill="#FAFAFA"/>
<path d="M79.4577 181.358H82.1211V178.695H79.4577V181.358Z" fill="#F0F0F0"/>
<path d="M94.9362 186.198H97.5996V183.535H94.9362V186.198Z" fill="#F0F0F0"/>
<path d="M89.778 186.198H92.4414V183.535H89.778V186.198Z" fill="#FAFAFA"/>
<path d="M84.6178 186.198H87.2812V183.535H84.6178V186.198Z" fill="#F0F0F0"/>
<path d="M79.4577 186.198H82.1211V183.535H79.4577V186.198Z" fill="#FAFAFA"/>
<path d="M94.9362 191.038H97.5996V188.374H94.9362V191.038Z" fill="#FAFAFA"/>
<path d="M89.778 191.038H92.4414V188.374H89.778V191.038Z" fill="#FAFAFA"/>
<path d="M84.6178 191.038H87.2812V188.374H84.6178V191.038Z" fill="#F0F0F0"/>
<path d="M79.4577 191.038H82.1211V188.374H79.4577V191.038Z" fill="#F0F0F0"/>
<path d="M216.225 158.004H195.42V193.979H216.225V158.004Z" fill="#EBEBEB"/>
<path d="M212.23 152.977V161.999H210.589H201.056H199.416V152.977H212.23Z" fill="#EBEBEB"/>
<path d="M212.229 161.999H214.893V159.336H212.229V161.999Z" fill="#FAFAFA"/>
<path d="M207.069 161.999H209.732V159.336H207.069V161.999Z" fill="#FAFAFA"/>
<path d="M201.911 161.999H204.574V159.336H201.911V161.999Z" fill="#FAFAFA"/>
<path d="M196.753 161.999H199.416V159.336H196.753V161.999Z" fill="#F0F0F0"/>
<path d="M212.229 166.839H214.893V164.176H212.229V166.839Z" fill="#F0F0F0"/>
<path d="M207.069 166.839H209.732V164.176H207.069V166.839Z" fill="#F0F0F0"/>
<path d="M201.911 166.839H204.574V164.176H201.911V166.839Z" fill="#FAFAFA"/>
<path d="M196.753 166.839H199.416V164.176H196.753V166.839Z" fill="#FAFAFA"/>
<path d="M212.229 171.679H214.893V169.015H212.229V171.679Z" fill="#F0F0F0"/>
<path d="M207.069 171.679H209.732V169.015H207.069V171.679Z" fill="#FAFAFA"/>
<path d="M201.911 171.679H204.574V169.015H201.911V171.679Z" fill="#FAFAFA"/>
<path d="M207.069 157.816H209.732V155.153H207.069V157.816Z" fill="#FAFAFA"/>
<path d="M201.911 157.816H204.574V155.153H201.911V157.816Z" fill="#F0F0F0"/>
<path d="M196.753 171.679H199.416V169.015H196.753V171.679Z" fill="#F0F0F0"/>
<path d="M212.229 176.518H214.893V173.855H212.229V176.518Z" fill="#FAFAFA"/>
<path d="M207.069 176.518H209.732V173.855H207.069V176.518Z" fill="#F0F0F0"/>
<path d="M201.911 176.518H204.574V173.855H201.911V176.518Z" fill="#F0F0F0"/>
<path d="M196.753 176.518H199.416V173.855H196.753V176.518Z" fill="#FAFAFA"/>
<path d="M212.229 181.358H214.893V178.695H212.229V181.358Z" fill="#F0F0F0"/>
<path d="M207.069 181.358H209.732V178.695H207.069V181.358Z" fill="#FAFAFA"/>
<path d="M201.911 181.358H204.574V178.695H201.911V181.358Z" fill="#FAFAFA"/>
<path d="M196.753 181.358H199.416V178.695H196.753V181.358Z" fill="#F0F0F0"/>
<path d="M212.229 186.198H214.893V183.535H212.229V186.198Z" fill="#F0F0F0"/>
<path d="M207.069 186.198H209.732V183.535H207.069V186.198Z" fill="#FAFAFA"/>
<path d="M201.911 186.198H204.574V183.535H201.911V186.198Z" fill="#F0F0F0"/>
<path d="M196.753 186.198H199.416V183.535H196.753V186.198Z" fill="#FAFAFA"/>
<path d="M212.229 191.038H214.893V188.374H212.229V191.038Z" fill="#FAFAFA"/>
<path d="M207.069 191.038H209.732V188.374H207.069V191.038Z" fill="#FAFAFA"/>
<path d="M201.911 191.038H204.574V188.374H201.911V191.038Z" fill="#F0F0F0"/>
<path d="M196.753 191.038H199.416V188.374H196.753V191.038Z" fill="#F0F0F0"/>
<path d="M249.27 171.109H230.633V193.979H249.27V171.109Z" fill="#F0F0F0"/>
<path d="M232.256 173.646H236.591H237.784H238.978V176.031H237.784H236.591H232.256V173.646Z" fill="#E6E6E6"/>
<path d="M232.256 178.267H236.591H237.784H238.978V180.653H237.784H236.591H232.256V178.267Z" fill="#FAFAFA"/>
<path d="M232.256 182.889H236.591H237.784H238.978V185.275H237.784H236.591H232.256V182.889Z" fill="#E6E6E6"/>
<path d="M232.256 187.51H236.591H238.436H238.978V189.897H238.436H236.591H232.256V187.51Z" fill="#FAFAFA"/>
<path d="M240.926 173.646H245.261H246.454H247.648V176.031H246.454H245.261H240.926V173.646Z" fill="#FAFAFA"/>
<path d="M240.926 178.267H245.261H246.943H247.648V180.653H246.943H245.261H240.926V178.267Z" fill="#FAFAFA"/>
<path d="M240.926 182.889H245.261H246.454H247.648V185.275H246.454H245.261H240.926V182.889Z" fill="#E6E6E6"/>
<path d="M240.926 187.51H245.261H246.454H247.648V189.897H246.454H245.261H240.926V187.51Z" fill="#FAFAFA"/>
<path d="M160.385 179.769H143.451V193.979H160.385V179.769Z" fill="#F0F0F0"/>
<path d="M157.133 183.708H159.301V181.541H157.133V183.708Z" fill="#FAFAFA"/>
<path d="M152.934 183.708H155.102V181.541H152.934V183.708Z" fill="#FAFAFA"/>
<path d="M148.735 183.708H150.902V181.541H148.735V183.708Z" fill="#FAFAFA"/>
<path d="M144.535 183.708H146.703V181.541H144.535V183.708Z" fill="#FAFAFA"/>
<path d="M157.133 187.647H159.301V185.48H157.133V187.647Z" fill="#FAFAFA"/>
<path d="M152.934 187.647H155.102V185.48H152.934V187.647Z" fill="#FAFAFA"/>
<path d="M148.735 187.647H150.902V185.48H148.735V187.647Z" fill="#FAFAFA"/>
<path d="M144.535 187.647H146.703V185.48H144.535V187.647Z" fill="#E6E6E6"/>
<path d="M157.133 191.586H159.301V189.418H157.133V191.586Z" fill="#E6E6E6"/>
<path d="M152.934 191.586H155.102V189.418H152.934V191.586Z" fill="#E6E6E6"/>
<path d="M148.735 191.586H150.902V189.418H148.735V191.586Z" fill="#FAFAFA"/>
<path d="M144.535 191.586H146.703V189.418H144.535V191.586Z" fill="#E6E6E6"/>
<path d="M193.641 179.769H176.707V193.979H193.641V179.769Z" fill="#F0F0F0"/>
<path d="M190.389 183.708H192.557V181.541H190.389V183.708Z" fill="#FAFAFA"/>
<path d="M186.19 183.708H188.357V181.541H186.19V183.708Z" fill="#FAFAFA"/>
<path d="M181.992 183.708H184.16V181.541H181.992V183.708Z" fill="#FAFAFA"/>
<path d="M177.791 183.708H179.959V181.541H177.791V183.708Z" fill="#FAFAFA"/>
<path d="M190.389 187.647H192.557V185.48H190.389V187.647Z" fill="#FAFAFA"/>
<path d="M186.19 187.647H188.357V185.48H186.19V187.647Z" fill="#FAFAFA"/>
<path d="M181.992 187.647H184.16V185.48H181.992V187.647Z" fill="#FAFAFA"/>
<path d="M177.791 187.647H179.959V185.48H177.791V187.647Z" fill="#E6E6E6"/>
<path d="M190.389 191.586H192.557V189.418H190.389V191.586Z" fill="#E6E6E6"/>
<path d="M186.19 191.586H188.357V189.418H186.19V191.586Z" fill="#E6E6E6"/>
<path d="M181.992 191.586H184.16V189.418H181.992V191.586Z" fill="#FAFAFA"/>
<path d="M177.791 191.586H179.959V189.418H177.791V191.586Z" fill="#E6E6E6"/>
<path d="M141.158 169.261H124.225V193.979H141.158V169.261Z" fill="#F0F0F0"/>
<path d="M140.074 170.345H133.707V176.452H140.074V170.345Z" fill="#FAFAFA"/>
<path d="M131.676 170.345H125.309V176.452H131.676V170.345Z" fill="#FAFAFA"/>
<path d="M140.074 178.223H133.707V184.33H140.074V178.223Z" fill="#FAFAFA"/>
<path d="M131.676 178.223H125.309V184.33H131.676V178.223Z" fill="#FAFAFA"/>
<path d="M140.074 186.101H133.707V192.208H140.074V186.101Z" fill="#FAFAFA"/>
<path d="M131.676 186.101H125.309V192.208H131.676V186.101Z" fill="#FAFAFA"/>
<path d="M269.035 169.26H252.102V193.979H269.035V169.26Z" fill="#F0F0F0"/>
<path d="M267.951 170.345H261.584V176.452H267.951V170.345Z" fill="#FAFAFA"/>
<path d="M259.553 170.345H253.186V176.452H259.553V170.345Z" fill="#FAFAFA"/>
<path d="M267.951 178.223H261.584V184.33H267.951V178.223Z" fill="#FAFAFA"/>
<path d="M259.553 178.223H253.186V184.33H259.553V178.223Z" fill="#FAFAFA"/>
<path d="M267.951 186.101H261.584V192.208H267.951V186.101Z" fill="#FAFAFA"/>
<path d="M259.553 186.101H253.186V192.208H259.553V186.101Z" fill="#FAFAFA"/>
<path d="M56.9877 202.809C56.9877 202.809 53.5817 195.378 57.4733 188.052C61.3648 180.727 62.4927 179.002 60.0123 177.5C57.5318 176 56.3938 183.361 56.3938 183.361C56.3938 183.361 54.3027 178.297 56.0292 172.997C57.7558 167.697 58.8386 159.065 56.4805 158.139C54.1225 157.213 56.0306 168.907 53.9846 172.893C53.9846 172.893 52.2662 168.455 51.9837 164.199C51.7012 159.942 52.1424 153.145 50.2807 151.402C48.419 149.658 47.2259 150.864 49.0559 160.258C50.886 169.652 50.8726 177.288 50.8726 177.288C50.8726 177.288 46.831 164.965 44.1185 164.606C41.406 164.247 41.4094 168.238 43.7311 171.699C46.0529 175.16 50.5302 181.361 51.2647 184.552C51.2647 184.552 46.8284 175.278 42.8379 178.12C38.8475 180.963 46.3111 186.564 49.6377 188.588C52.9643 190.612 55.2746 203.299 55.2746 203.299L56.9877 202.809Z" fill="#E0E0E0"/>
<path d="M54.2995 205.856C54.2995 205.856 57.616 198.375 53.637 191.108C49.658 183.841 48.5092 182.132 50.9722 180.595C53.4345 179.057 54.6606 186.401 54.6606 186.401C54.6606 186.401 56.6905 181.306 54.9008 176.032C53.111 170.758 51.9246 162.143 54.2712 161.182C56.6178 160.221 54.8503 171.943 56.944 175.898C56.944 175.898 58.6094 171.436 58.8407 167.175C59.0728 162.914 58.5495 156.124 60.3903 154.353C62.2312 152.583 63.4385 153.77 61.7214 163.191C60.0043 172.611 60.1092 180.247 60.1092 180.247C60.1092 180.247 64.0028 167.866 66.7106 167.465C69.4184 167.066 69.4628 171.056 67.1827 174.552C64.9027 178.047 60.5 184.314 59.8039 187.516C59.8039 187.516 64.1285 178.177 68.1526 180.959C72.1766 183.742 64.7809 189.454 61.4786 191.527C58.1762 193.601 56.0186 206.321 56.0186 206.321L54.2995 205.856Z" fill="#EBEBEB"/>
<path d="M69.5941 200.523H42.1973L44.4141 220.128H67.3766L69.5941 200.523Z" fill="#EBEBEB"/>
<path d="M274.964 199.127C275.063 198.463 277.335 182.788 272.784 177.377C271.776 176.179 270.505 175.553 269.005 175.516C259.819 175.3 258.562 182.679 258.551 182.755L259.634 182.921C259.677 182.657 260.766 176.413 268.978 176.612C270.167 176.641 271.137 177.122 271.945 178.082C276.181 183.12 273.903 198.808 273.88 198.965L274.964 199.127Z" fill="#EBEBEB"/>
<path d="M275.522 198.413L276.617 198.379C276.612 198.235 276.253 183.936 283.298 180.982C290.203 178.09 293.308 184.037 293.437 184.292L294.416 183.8C294.381 183.729 290.736 176.675 282.874 179.972C275.135 183.216 275.502 197.794 275.522 198.413Z" fill="#EBEBEB"/>
<path d="M275.489 199.536C275.489 199.308 275.555 176.695 279.964 170.081C284.197 163.731 291.025 166.72 291.314 166.851L291.767 165.853C291.688 165.817 283.807 162.338 279.052 169.473C274.46 176.361 274.393 198.592 274.393 199.535L275.489 199.536Z" fill="#EBEBEB"/>
<path d="M267.691 176.059C267.691 176.059 271.702 177.538 270.51 181.029C269.317 184.519 256.634 190.265 256.634 190.265C256.634 190.265 251.322 185.396 256.2 177.478C261.078 169.56 267.582 173.561 267.691 176.059Z" fill="#E0E0E0"/>
<path d="M280.163 168.89C280.163 168.89 277.315 168.585 277.544 166.85C277.774 165.116 288.614 160.652 295.01 167.87C295.01 167.87 290.915 174.905 284.995 174.997C279.075 175.089 280.163 168.89 280.163 168.89Z" fill="#E0E0E0"/>
<path d="M283.085 180.477C283.085 180.477 281.12 178.891 283.24 178.116C285.361 177.341 295.768 177.562 295.877 187.87C295.877 187.87 283.756 189.885 282.256 185.957C280.755 182.031 283.085 180.477 283.085 180.477Z" fill="#E0E0E0"/>
<path d="M265.535 220.129H284.344L286.373 199.536H263.506L265.535 220.129Z" fill="#EBEBEB"/>
<path d="M262.501 201.807H287.377V197.263H262.501V201.807Z" fill="#E0E0E0"/>
<path d="M168.144 250.609C240.165 250.609 298.55 247.199 298.55 242.993C298.55 238.787 240.165 235.378 168.144 235.378C96.1229 235.378 37.7383 238.787 37.7383 242.993C37.7383 247.199 96.1229 250.609 168.144 250.609Z" fill="#F5F5F5"/>
<path d="M231.624 240.586V242.816C231.624 243.094 231.398 243.314 231.12 243.314H168.142C165.813 243.314 164.226 240.962 165.095 238.807L185.052 189.379L217.303 189.599L216.202 196.012L209.088 237.521C208.856 238.859 209.888 240.087 211.249 240.087H231.12C231.398 240.087 231.624 240.308 231.624 240.586Z" fill="#263238"/>
<path opacity="0.6" d="M231.624 240.586V242.816C231.624 243.094 231.398 243.314 231.12 243.314H168.142C165.813 243.314 164.226 240.962 165.095 238.807L177.469 208.167L185.052 189.38L217.303 189.6L216.202 196.013L213.108 214.064L209.087 237.521C208.855 238.86 209.887 240.088 211.248 240.088H231.119C231.398 240.087 231.624 240.308 231.624 240.586Z" fill="white"/>
<path opacity="0.2" d="M211.249 240.087H170.273C169.248 240.087 168.552 239.045 168.946 238.098L186.443 196.012H216.202L209.088 237.521C208.857 238.859 209.888 240.087 211.249 240.087Z" fill="black"/>
<path opacity="0.1" d="M217.303 189.599L216.203 196.012L213.109 214.064L177.469 208.166L185.052 189.379L217.303 189.599Z" fill="black"/>
<path d="M280.018 97.4594H276.854H133.872H130.708C128.598 97.4594 126.887 99.1704 126.887 101.28V202.361C126.887 204.471 128.597 206.182 130.708 206.182H133.872H276.853H280.017C282.127 206.182 283.838 204.471 283.838 202.361V101.28C283.839 99.1704 282.128 97.4594 280.018 97.4594Z" fill="#263238"/>
<path opacity="0.7" d="M280.018 97.4594H276.854H133.872H130.708C128.598 97.4594 126.887 99.1704 126.887 101.28V202.361C126.887 204.471 128.597 206.182 130.708 206.182H133.872H276.853H280.017C282.127 206.182 283.838 204.471 283.838 202.361V101.28C283.839 99.1704 282.128 97.4594 280.018 97.4594Z" fill="white"/>
<path opacity="0.2" d="M133.87 206.18H130.706C128.598 206.18 126.889 204.471 126.889 202.363V101.282C126.889 99.1684 128.598 97.4594 130.706 97.4594H133.87C131.762 97.4594 130.053 99.1684 130.053 101.282V202.363C130.053 204.471 131.762 206.18 133.87 206.18Z" fill="black"/>
<path d="M280.395 101.199H133.496V198.67H280.395V101.199Z" fill="#1D5AFF"/>
<path opacity="0.4" d="M280.395 101.199H133.496V109.912H280.395V101.199Z" fill="black"/>
<path d="M157.485 106.024H138.481C138.143 106.024 137.869 105.75 137.869 105.413C137.869 105.075 138.143 104.801 138.481 104.801H157.485C157.823 104.801 158.096 105.075 158.096 105.413C158.096 105.75 157.823 106.024 157.485 106.024Z" fill="white"/>
<path d="M214.295 106.024H203.406C203.069 106.024 202.795 105.75 202.795 105.413C202.795 105.075 203.069 104.801 203.406 104.801H214.295C214.633 104.801 214.907 105.075 214.907 105.413C214.907 105.75 214.633 106.024 214.295 106.024Z" fill="white"/>
<path d="M231.686 106.024H220.797C220.459 106.024 220.186 105.75 220.186 105.413C220.186 105.075 220.459 104.801 220.797 104.801H231.686C232.024 104.801 232.297 105.075 232.297 105.413C232.297 105.75 232.023 106.024 231.686 106.024Z" fill="white"/>
<path d="M249.075 106.024H238.186C237.848 106.024 237.574 105.75 237.574 105.413C237.574 105.075 237.848 104.801 238.186 104.801H249.075C249.412 104.801 249.686 105.075 249.686 105.413C249.686 105.75 249.412 106.024 249.075 106.024Z" fill="white"/>
<path d="M272.799 105.011L274.825 107.037L276.85 105.011H272.799Z" fill="white"/>
<path d="M252.613 101.2V109.913H269.42V101.2H252.613ZM266.466 106.024H255.578C255.24 106.024 254.967 105.75 254.967 105.413C254.967 105.075 255.24 104.801 255.578 104.801H266.466C266.804 104.801 267.078 105.075 267.078 105.413C267.077 105.75 266.803 106.024 266.466 106.024Z" fill="white"/>
<path d="M195.696 143.695H141.91C141.573 143.695 141.299 143.421 141.299 143.084C141.299 142.746 141.573 142.472 141.91 142.472H195.696C196.033 142.472 196.307 142.746 196.307 143.084C196.307 143.421 196.033 143.695 195.696 143.695Z" fill="white"/>
<path d="M195.696 147.215H141.91C141.573 147.215 141.299 146.941 141.299 146.603C141.299 146.266 141.573 145.992 141.91 145.992H195.696C196.033 145.992 196.307 146.266 196.307 146.603C196.307 146.941 196.033 147.215 195.696 147.215Z" fill="white"/>
<path d="M189.899 150.734H141.91C141.573 150.734 141.299 150.461 141.299 150.123C141.299 149.785 141.573 149.512 141.91 149.512H189.899C190.236 149.512 190.51 149.785 190.51 150.123C190.51 150.461 190.236 150.734 189.899 150.734Z" fill="white"/>
<path d="M195.696 154.255H141.91C141.573 154.255 141.299 153.981 141.299 153.643C141.299 153.306 141.573 153.032 141.91 153.032H195.696C196.033 153.032 196.307 153.306 196.307 153.643C196.307 153.981 196.033 154.255 195.696 154.255Z" fill="white"/>
<path d="M189.899 157.774H141.91C141.573 157.774 141.299 157.5 141.299 157.163C141.299 156.825 141.573 156.551 141.91 156.551H189.899C190.236 156.551 190.51 156.825 190.51 157.163C190.51 157.5 190.236 157.774 189.899 157.774Z" fill="white"/>
<path d="M166.712 161.294H141.91C141.573 161.294 141.299 161.021 141.299 160.683C141.299 160.345 141.573 160.072 141.91 160.072H166.712C167.049 160.072 167.323 160.345 167.323 160.683C167.323 161.021 167.049 161.294 166.712 161.294Z" fill="white"/>
<path d="M183.083 131.028H142.601C141.882 131.028 141.299 130.445 141.299 129.726C141.299 129.007 141.882 128.424 142.601 128.424H183.083C183.802 128.424 184.386 129.007 184.386 129.726C184.386 130.445 183.802 131.028 183.083 131.028Z" fill="white"/>
<path d="M200.476 136.362H142.603C141.884 136.362 141.301 135.779 141.301 135.06C141.301 134.341 141.884 133.758 142.603 133.758H200.476C201.195 133.758 201.778 134.341 201.778 135.06C201.777 135.779 201.195 136.362 200.476 136.362Z" fill="white"/>
<path opacity="0.4" d="M167.215 173.839H142.89C142.012 173.839 141.301 173.128 141.301 172.25V168.736C141.301 167.858 142.012 167.147 142.89 167.147H167.215C168.093 167.147 168.805 167.858 168.805 168.736V172.25C168.805 173.128 168.093 173.839 167.215 173.839Z" fill="black"/>
<path d="M163.713 169.072V171.913L166.793 170.493L163.713 169.072Z" fill="white"/>
<path opacity="0.2" d="M224.967 130.313C236.573 130.566 233.409 153.836 218.912 152.409C204.414 150.982 212.519 130.041 224.967 130.313Z" fill="black"/>
<path opacity="0.2" d="M237.915 143.805C238.084 143.535 238.268 143.265 238.469 142.994C242.57 137.495 254.213 135.291 260.27 138.16C269.787 142.668 273.651 154.202 269.884 164.992C268.223 169.747 265.097 173.854 260.45 177.194C252.841 182.665 243.584 185.076 235.24 184.305C228.993 183.727 223.677 182.485 219.688 179.569C218.11 178.416 216.796 176.892 216.098 174.993C215.185 172.508 215.449 169.426 216.6 167.069C217.755 164.7 219.867 163.203 221.948 162.067C224.78 160.522 227.808 158.993 230.569 156.364C233.176 153.88 234.806 150.822 235.991 147.95C236.566 146.556 237.066 145.165 237.915 143.805Z" fill="black"/>
<path d="M240.524 168.711C239.982 170.756 236.736 171.67 233.275 170.753C229.814 169.836 227.447 167.434 227.99 165.388C228.532 163.343 231.778 162.429 235.239 163.347C238.699 164.264 241.066 166.666 240.524 168.711Z" fill="#263238"/>
<path d="M245.031 162.64C245.49 162.353 245.804 161.997 245.918 161.568C246.45 159.56 242.612 156.8 237.344 155.404C232.076 154.008 227.374 154.503 226.842 156.512C226.729 156.941 226.825 157.406 227.082 157.883C226.925 158.063 226.809 158.261 226.751 158.481C226.639 158.906 226.74 159.366 227.005 159.839C226.837 160.022 226.719 160.225 226.659 160.45C226.548 160.872 226.655 161.331 226.933 161.802C226.755 161.986 226.629 162.191 226.568 162.42C226.457 162.84 226.569 163.298 226.861 163.768C226.674 163.951 226.538 164.156 226.477 164.389C226.034 166.058 229.225 168.353 233.605 169.514C237.984 170.675 241.893 170.263 242.335 168.593C242.397 168.361 242.381 168.116 242.308 167.864C242.794 167.599 243.12 167.258 243.231 166.837C243.292 166.608 243.284 166.368 243.22 166.12C243.695 165.849 244.015 165.503 244.127 165.081C244.187 164.856 244.185 164.621 244.129 164.379C244.594 164.099 244.91 163.75 245.023 163.326C245.08 163.105 245.077 162.876 245.031 162.64Z" fill="#263238"/>
<path opacity="0.3" d="M245.031 162.64C245.49 162.353 245.804 161.997 245.918 161.568C246.45 159.56 242.612 156.8 237.344 155.404C232.076 154.008 227.374 154.503 226.842 156.512C226.729 156.941 226.825 157.406 227.082 157.883C226.925 158.063 226.809 158.261 226.751 158.481C226.639 158.906 226.74 159.366 227.005 159.839C226.837 160.022 226.719 160.225 226.659 160.45C226.548 160.872 226.655 161.331 226.933 161.802C226.755 161.986 226.629 162.191 226.568 162.42C226.457 162.84 226.569 163.298 226.861 163.768C226.674 163.951 226.538 164.156 226.477 164.389C226.034 166.058 229.225 168.353 233.605 169.514C237.984 170.675 241.893 170.263 242.335 168.593C242.397 168.361 242.381 168.116 242.308 167.864C242.794 167.599 243.12 167.258 243.231 166.837C243.292 166.608 243.284 166.368 243.22 166.12C243.695 165.849 244.015 165.503 244.127 165.081C244.187 164.856 244.185 164.621 244.129 164.379C244.594 164.099 244.91 163.75 245.023 163.326C245.08 163.105 245.077 162.876 245.031 162.64Z" fill="white"/>
<path d="M257.661 146.911C260.237 137.193 254.092 127.216 244.048 125.282C235.382 123.613 226.705 128.836 224.102 137.268C222.41 142.748 223.541 148.372 226.621 152.646C227.18 153.421 227.343 154.419 227.009 155.315C226.993 155.358 226.979 155.403 226.967 155.448C226.426 157.487 230.324 160.29 235.674 161.708C241.023 163.125 245.798 162.622 246.339 160.583C246.35 160.539 246.359 160.495 246.367 160.45C246.525 159.497 247.174 158.711 248.053 158.308C252.63 156.21 256.269 152.16 257.661 146.911Z" fill="#1D5AFF"/>
<path opacity="0.7" d="M257.661 146.911C260.237 137.193 254.092 127.216 244.048 125.282C235.382 123.613 226.705 128.836 224.102 137.268C222.41 142.748 223.541 148.372 226.621 152.646C227.18 153.421 227.343 154.419 227.009 155.315C226.993 155.358 226.979 155.403 226.967 155.448C226.426 157.487 230.324 160.29 235.674 161.708C241.023 163.125 245.798 162.622 246.339 160.583C246.35 160.539 246.359 160.495 246.367 160.45C246.525 159.497 247.174 158.711 248.053 158.308C252.63 156.21 256.269 152.16 257.661 146.911Z" fill="white"/>
<path d="M239.395 159.527C239.395 159.527 242.767 151.551 247.702 150.189L244.525 149.347L244.142 146.689L240.885 150.514L239.949 145.578L236.829 148.883L235.755 144.467L234.106 146.585L230.93 145.743C230.93 145.743 234.62 151.662 232.986 157.828" stroke="#263238" stroke-width="0.623" stroke-miterlimit="10" stroke-linecap="round" stroke-linejoin="round"/>
<path opacity="0.4" d="M248.751 131.663C249.516 135.426 245.767 139.364 240.378 140.459C234.989 141.554 230 139.392 229.236 135.63C228.471 131.868 232.22 127.93 237.609 126.835C242.998 125.739 247.987 127.901 248.751 131.663Z" fill="white"/>
<path opacity="0.4" d="M244.519 143.67C244.826 145.181 243.321 146.761 241.158 147.201C238.994 147.641 236.992 146.773 236.684 145.263C236.378 143.752 237.882 142.172 240.046 141.732C242.209 141.292 244.212 142.16 244.519 143.67Z" fill="white"/>
<path opacity="0.1" d="M148.809 198.673C169.12 185.694 221.287 156.807 280.397 158.942V198.673H148.809Z" fill="white"/>
<path opacity="0.1" d="M133.496 161.272V101.2H245.419C241.126 113.333 232.547 129.948 215.902 141.822C185.962 163.184 151.215 163.121 133.496 161.272Z" fill="white"/>
<path d="M104.657 67.6313V154.397C104.657 155.224 103.978 155.87 103.157 155.87H49.815C49.0483 155.87 48.4766 155.284 48.4766 154.518V67.5169C48.4766 66.8511 48.9608 66.2726 49.6199 66.2726H62.9639C63.3338 66.2726 63.6768 66.5215 63.8181 66.878L64.3763 68.2366C64.5041 68.5863 64.8539 68.8284 65.2305 68.8284H87.93C88.3067 68.8284 88.6497 68.593 88.7909 68.2433L89.3425 66.878C89.4837 66.5215 89.8267 66.2726 90.2034 66.2726H103.346C104.072 66.2726 104.657 66.9049 104.657 67.6313Z" fill="#1D5AFF"/>
<path opacity="0.1" d="M101.747 66.2767C96.7744 80.0423 80.6076 117.855 48.4785 133.276V67.5156C48.4785 66.8531 48.9641 66.2767 49.6232 66.2767H62.9585C63.3371 66.2767 63.6768 66.5195 63.8194 66.8773L64.3709 68.2339C64.5094 68.5877 64.8531 68.8271 65.2278 68.8271H87.932C88.3066 68.8271 88.6503 68.5944 88.7889 68.244L89.3404 66.8766C89.483 66.5228 89.8226 66.276 90.2006 66.276L101.747 66.2767Z" fill="white"/>
<path opacity="0.1" d="M104.654 115.742V154.397C104.654 155.227 103.984 155.872 103.155 155.872H49.8176C49.0542 155.872 48.4785 155.282 48.4785 154.519V144.66C63.3196 125.125 88.8238 118.202 104.654 115.742Z" fill="white"/>
<path opacity="0.6" d="M54.675 70.3413H55.3691V69.4165H54.675V70.3413Z" fill="white"/>
<path opacity="0.6" d="M53.5442 70.3415H54.2383V69.108H53.5442V70.3415Z" fill="white"/>
<path opacity="0.6" d="M52.4114 70.3416H53.1055V68.7994H52.4114V70.3416Z" fill="white"/>
<path opacity="0.6" d="M51.2805 70.3417H51.9746V68.4908H51.2805V70.3417Z" fill="white"/>
<path opacity="0.6" d="M98.2977 69.0793H97.8867V70.0041H98.2977V69.0793Z" fill="white"/>
<path opacity="0.6" d="M98.5806 70.3416H101.857V68.7415H98.5806V70.3416Z" fill="white"/>
<path d="M93.9007 132.98H59.2359C59.0187 132.98 58.8418 132.804 58.8418 132.586C58.8418 132.368 59.018 132.191 59.2359 132.191H93.9007C94.1179 132.191 94.2948 132.368 94.2948 132.586C94.2941 132.804 94.1179 132.98 93.9007 132.98Z" fill="white"/>
<path d="M93.9007 135.248H59.2359C59.0187 135.248 58.8418 135.072 58.8418 134.854C58.8418 134.636 59.018 134.46 59.2359 134.46H93.9007C94.1179 134.46 94.2948 134.636 94.2948 134.854C94.2941 135.072 94.1179 135.248 93.9007 135.248Z" fill="white"/>
<path d="M92.0317 137.517H61.1031C60.8859 137.517 60.709 137.341 60.709 137.123C60.709 136.906 60.8852 136.729 61.1031 136.729H92.0317C92.2496 136.729 92.4258 136.905 92.4258 137.123C92.4258 137.341 92.2496 137.517 92.0317 137.517Z" fill="white"/>
<path d="M93.9007 139.786H59.2359C59.0187 139.786 58.8418 139.609 58.8418 139.391C58.8418 139.174 59.018 138.997 59.2359 138.997H93.9007C94.1179 138.997 94.2948 139.174 94.2948 139.391C94.2941 139.609 94.1179 139.786 93.9007 139.786Z" fill="white"/>
<path d="M92.0317 142.054H61.1031C60.8859 142.054 60.709 141.878 60.709 141.66C60.709 141.443 60.8852 141.266 61.1031 141.266H92.0317C92.2496 141.266 92.4258 141.442 92.4258 141.66C92.4258 141.878 92.2496 142.054 92.0317 142.054Z" fill="white"/>
<path d="M84.5603 144.323H68.5758C68.3585 144.323 68.1816 144.147 68.1816 143.929C68.1816 143.711 68.3579 143.534 68.5758 143.534H84.5603C84.7782 143.534 84.9544 143.711 84.9544 143.929C84.9544 144.147 84.7782 144.323 84.5603 144.323Z" fill="white"/>
<path d="M89.6117 85.0544H63.5203C63.0569 85.0544 62.6816 84.6791 62.6816 84.2157C62.6816 83.7523 63.0569 83.377 63.5203 83.377H89.611C90.0744 83.377 90.4504 83.753 90.4504 84.2157C90.4504 84.6791 90.0751 85.0544 89.6117 85.0544Z" fill="white"/>
<path d="M95.2167 88.4919H57.9175C57.4541 88.4919 57.0781 88.116 57.0781 87.6532C57.0781 87.1898 57.4541 86.8145 57.9175 86.8145H95.2167C95.6801 86.8145 96.0554 87.1898 96.0554 87.6532C96.0561 88.1166 95.6801 88.4919 95.2167 88.4919Z" fill="white"/>
<path opacity="0.4" d="M84.4053 151.062H68.7275C68.1618 151.062 67.7031 150.603 67.7031 150.038V147.773C67.7031 147.207 68.1618 146.749 68.7275 146.749H84.4053C84.9709 146.749 85.4296 147.207 85.4296 147.773V150.038C85.4289 150.603 84.9709 151.062 84.4053 151.062Z" fill="black"/>
<path d="M82.1484 147.99V149.82L84.1332 148.905L82.1484 147.99Z" fill="white"/>
<path opacity="0.2" d="M66.0797 94.7913C73.5595 94.9547 71.5209 109.952 62.1767 109.032C52.8326 108.112 58.0565 94.6158 66.0797 94.7913Z" fill="black"/>
<path opacity="0.2" d="M74.423 103.487C74.5319 103.313 74.6503 103.139 74.7801 102.964C77.4227 99.42 84.9266 98.0001 88.8309 99.8491C94.9649 102.754 97.4548 110.188 95.0267 117.142C93.9567 120.207 91.9416 122.853 88.9466 125.006C84.0429 128.532 78.0764 130.086 72.6985 129.589C68.6724 129.217 65.2463 128.416 62.6757 126.537C61.6587 125.794 60.812 124.811 60.362 123.588C59.7735 121.986 59.9437 120 60.6849 118.481C61.4294 116.954 62.7907 115.989 64.1318 115.257C65.9572 114.262 67.9084 113.276 69.6873 111.582C71.3681 109.981 72.418 108.01 73.182 106.159C73.5533 105.26 73.8748 104.363 74.423 103.487Z" fill="black"/>
<path d="M76.1047 119.539C75.7549 120.857 73.6639 121.446 71.4329 120.855C69.202 120.264 67.6773 118.716 68.0263 117.397C68.3761 116.079 70.4678 115.49 72.6981 116.081C74.929 116.673 76.4544 118.221 76.1047 119.539Z" fill="#263238"/>
<path d="M79.0096 115.626C79.3055 115.441 79.508 115.212 79.5813 114.936C79.9243 113.642 77.4499 111.863 74.0554 110.963C70.6602 110.063 67.6302 110.382 67.2872 111.677C67.2139 111.953 67.2758 112.253 67.4412 112.56C67.3403 112.677 67.265 112.804 67.228 112.946C67.1554 113.219 67.2213 113.516 67.3921 113.821C67.2838 113.938 67.2078 114.069 67.1695 114.215C67.0975 114.486 67.1668 114.782 67.345 115.086C67.2307 115.204 67.1493 115.336 67.1103 115.484C67.0384 115.755 67.111 116.05 67.2993 116.353C67.1782 116.471 67.0908 116.603 67.0518 116.753C66.7666 117.829 68.8234 119.308 71.6455 120.056C74.4683 120.804 76.9871 120.538 77.2723 119.463C77.312 119.313 77.3019 119.155 77.2548 118.993C77.5683 118.823 77.7774 118.602 77.8494 118.332C77.8884 118.184 77.8837 118.029 77.8427 117.869C78.148 117.694 78.3552 117.472 78.4271 117.2C78.4655 117.055 78.4641 116.903 78.4285 116.747C78.7278 116.567 78.9322 116.341 79.0042 116.068C79.0412 115.926 79.0392 115.778 79.0096 115.626Z" fill="#263238"/>
<path opacity="0.3" d="M79.0096 115.626C79.3055 115.441 79.508 115.212 79.5813 114.936C79.9243 113.642 77.4499 111.863 74.0554 110.963C70.6602 110.063 67.6302 110.382 67.2872 111.677C67.2139 111.953 67.2758 112.253 67.4412 112.56C67.3403 112.677 67.265 112.804 67.228 112.946C67.1554 113.219 67.2213 113.516 67.3921 113.821C67.2838 113.938 67.2078 114.069 67.1695 114.215C67.0975 114.486 67.1668 114.782 67.345 115.086C67.2307 115.204 67.1493 115.336 67.1103 115.484C67.0384 115.755 67.111 116.05 67.2993 116.353C67.1782 116.471 67.0908 116.603 67.0518 116.753C66.7666 117.829 68.8234 119.308 71.6455 120.056C74.4683 120.804 76.9871 120.538 77.2723 119.463C77.312 119.313 77.3019 119.155 77.2548 118.993C77.5683 118.823 77.7774 118.602 77.8494 118.332C77.8884 118.184 77.8837 118.029 77.8427 117.869C78.148 117.694 78.3552 117.472 78.4271 117.2C78.4655 117.055 78.4641 116.903 78.4285 116.747C78.7278 116.567 78.9322 116.341 79.0042 116.068C79.0412 115.926 79.0392 115.778 79.0096 115.626Z" fill="white"/>
<path d="M87.1488 105.489C88.8094 99.2256 84.8486 92.795 78.375 91.5487C72.7899 90.4733 67.1981 93.8395 65.52 99.274C64.4298 102.806 65.1589 106.43 67.143 109.185C67.5028 109.685 67.6084 110.328 67.3932 110.905C67.3824 110.933 67.3737 110.961 67.3656 110.991C67.0172 112.305 69.5299 114.112 72.9769 115.026C76.4246 115.94 79.5016 115.615 79.85 114.301C79.8574 114.272 79.8634 114.244 79.8682 114.215C79.9704 113.601 80.3881 113.094 80.9544 112.835C83.9063 111.482 86.2523 108.872 87.1488 105.489Z" fill="#1D5AFF"/>
<path opacity="0.7" d="M87.1488 105.489C88.8094 99.2256 84.8486 92.795 78.375 91.5487C72.7899 90.4733 67.1981 93.8395 65.52 99.274C64.4298 102.806 65.1589 106.43 67.143 109.185C67.5028 109.685 67.6084 110.328 67.3932 110.905C67.3824 110.933 67.3737 110.961 67.3656 110.991C67.0172 112.305 69.5299 114.112 72.9769 115.026C76.4246 115.94 79.5016 115.615 79.85 114.301C79.8574 114.272 79.8634 114.244 79.8682 114.215C79.9704 113.601 80.3881 113.094 80.9544 112.835C83.9063 111.482 86.2523 108.872 87.1488 105.489Z" fill="white"/>
<path d="M75.3778 113.619C75.3778 113.619 77.5509 108.479 80.7316 107.601L78.6842 107.058L78.4374 105.345L76.3376 107.81L75.735 104.628L73.724 106.758L73.0326 103.912L71.9692 105.277L69.9219 104.735C69.9219 104.735 72.3001 108.549 71.2469 112.523" stroke="#263238" stroke-width="0.4016" stroke-miterlimit="10" stroke-linecap="round" stroke-linejoin="round"/>
<path opacity="0.4" d="M81.4093 95.6616C81.9023 98.0862 79.4864 100.625 76.0125 101.33C72.5393 102.036 69.3244 100.643 68.8314 98.218C68.3384 95.7934 70.7543 93.2551 74.2282 92.5495C77.7014 91.8433 80.9163 93.2369 81.4093 95.6616Z" fill="white"/>
<path opacity="0.4" d="M78.6801 103.4C78.8778 104.373 77.908 105.392 76.5137 105.675C75.1195 105.958 73.8288 105.399 73.6311 104.426C73.4333 103.453 74.4032 102.434 75.7974 102.15C77.1917 101.867 78.4824 102.426 78.6801 103.4Z" fill="white"/>
<path opacity="0.4" d="M104.657 67.6313V79.5278H48.4766V67.5169C48.4766 66.8511 48.9608 66.2726 49.6199 66.2726H62.9639C63.3338 66.2726 63.6768 66.5215 63.8181 66.878L64.3763 68.2366C64.5041 68.5863 64.8539 68.8284 65.2305 68.8284H87.93C88.3067 68.8284 88.6497 68.593 88.7909 68.2433L89.3425 66.878C89.4837 66.5215 89.8267 66.2726 90.2034 66.2726H103.346C104.072 66.2726 104.657 66.9049 104.657 67.6313Z" fill="black"/>
<path d="M63.259 75.4943H51.0113C50.7934 75.4943 50.6172 75.3181 50.6172 75.1002C50.6172 74.8823 50.7934 74.7061 51.0113 74.7061H63.2597C63.4776 74.7061 63.6538 74.8823 63.6538 75.1002C63.6531 75.3181 63.4769 75.4943 63.259 75.4943Z" fill="white"/>
<path d="M101.827 74.0039H98.1666C98.0099 74.0039 97.8828 73.8768 97.8828 73.7201C97.8828 73.5634 98.0099 73.4363 98.1666 73.4363H101.827C101.984 73.4363 102.111 73.5634 102.111 73.7201C102.111 73.8768 101.984 74.0039 101.827 74.0039Z" fill="white"/>
<path d="M101.827 75.3847H98.1666C98.0099 75.3847 97.8828 75.2576 97.8828 75.1009C97.8828 74.9441 98.0099 74.817 98.1666 74.817H101.827C101.984 74.817 102.111 74.9441 102.111 75.1009C102.111 75.2576 101.984 75.3847 101.827 75.3847Z" fill="white"/>
<path d="M101.827 76.7648H98.1666C98.0099 76.7648 97.8828 76.6377 97.8828 76.481C97.8828 76.3243 98.0099 76.1971 98.1666 76.1971H101.827C101.984 76.1971 102.111 76.3243 102.111 76.481C102.111 76.6377 101.984 76.7648 101.827 76.7648Z" fill="white"/>
<path d="M161.9 186.689H158.441V192.07H161.9V186.689Z" fill="#1D5AFF"/>
<path d="M158.174 186.689H92.3569C85.1361 186.689 79.2611 180.815 79.2611 173.593V157.972H80.6729L76.5708 152.439L72.4688 157.972H73.8805V173.593C73.8805 183.781 82.1687 192.07 92.3569 192.07H158.174V186.689Z" fill="#1D5AFF"/>
<path d="M164.826 186.689H162.875V192.07H164.826V186.689Z" fill="#1D5AFF"/>
<path d="M167.322 186.689H166.689V192.07H167.322V186.689Z" fill="#1D5AFF"/>
<g opacity="0.7">
<path d="M161.9 186.689H158.441V192.07H161.9V186.689Z" fill="white"/>
<path d="M158.174 186.689H92.3569C85.1361 186.689 79.2611 180.815 79.2611 173.593V157.972H80.6729L76.5708 152.439L72.4688 157.972H73.8805V173.593C73.8805 183.781 82.1687 192.07 92.3569 192.07H158.174V186.689Z" fill="white"/>
<path d="M164.826 186.689H162.875V192.07H164.826V186.689Z" fill="white"/>
<path d="M167.322 186.689H166.689V192.07H167.322V186.689Z" fill="white"/>
</g>
<path d="M133.655 109.747L134.446 112.083L135.287 114.458C135.853 116.042 136.441 117.621 137.042 119.194L137.971 121.543L138.446 122.713C138.633 123.144 138.704 123.401 138.789 123.662C138.869 123.918 138.969 124.114 139.008 124.258C139.057 124.396 139.043 124.463 139.007 124.551C138.975 124.628 139.003 124.759 139.183 124.813C139.271 124.847 139.382 124.854 139.511 124.854C139.575 124.856 139.64 124.847 139.707 124.842C139.765 124.847 139.867 124.806 139.866 124.857C140.453 124.291 141.389 124.307 141.955 124.895C142.521 125.482 142.505 126.418 141.917 126.984C141.757 127.181 141.689 127.275 141.572 127.407C141.463 127.527 141.35 127.641 141.227 127.75C140.985 127.972 140.703 128.165 140.382 128.337C139.747 128.674 138.88 128.876 138.006 128.75C137.125 128.642 136.354 128.236 135.765 127.797C135.167 127.356 134.743 126.854 134.37 126.376C134.006 125.899 133.707 125.373 133.532 125.02L132.92 123.837C132.515 123.047 132.139 122.243 131.76 121.442C131.012 119.834 130.314 118.204 129.676 116.549C129.352 115.723 129.053 114.887 128.764 114.045C128.472 113.193 128.197 112.38 127.939 111.456C127.495 109.869 128.422 108.223 130.009 107.779C131.541 107.351 133.128 108.2 133.635 109.688L133.655 109.747Z" fill="#CE7A63"/>
<path d="M129.191 105.674C133.244 105.981 135.181 108.909 137.095 115.595C135.656 117.857 129.877 119.545 129.877 119.545C129.877 119.545 126.095 109.656 129.191 105.674Z" fill="#1D5AFF"/>
<path opacity="0.7" d="M129.191 105.674C133.244 105.981 135.181 108.909 137.095 115.595C135.656 117.857 129.877 119.545 129.877 119.545C129.877 119.545 126.095 109.656 129.191 105.674Z" fill="white"/>
<path d="M114.225 229.941L117.022 231.586C117.022 231.586 118.377 229.657 121.273 226.547V226.541C122.084 225.684 122.936 224.734 123.822 223.714C125.594 221.681 127.511 219.359 129.521 216.862C130.112 216.126 130.714 215.374 131.322 214.609C138.325 205.799 145.895 195.443 148.728 188.44C149.608 186.262 150.037 184.414 149.846 183.029C149.272 178.847 147.644 172.551 145.785 166.47C142.959 157.174 139.779 148.363 139.779 148.363L131.965 161.598C131.965 161.598 134.363 167.315 136.547 173.403C138.696 179.38 140.636 185.723 139.918 187.374C139.849 187.536 139.762 187.727 139.663 187.93C138.365 190.618 134.775 196.705 130.697 203.43C130.286 204.108 129.868 204.791 129.452 205.475C127.262 209.066 124.986 212.755 122.877 216.144C122.055 217.476 121.256 218.762 120.497 219.978C116.906 225.753 114.225 229.941 114.225 229.941Z" fill="#E4897B"/>
<path opacity="0.2" d="M131.483 214.609C127.787 219.255 124.236 223.471 121.595 226.541C121.218 224.653 120.836 222.417 120.535 219.979C123.587 215.079 127.323 209.031 130.718 203.431C130.689 206.396 130.799 210.781 131.483 214.609Z" fill="black"/>
<path d="M117.538 176.311C118.505 182.908 119.884 188.886 120.781 192.448C121.32 194.586 121.685 195.848 121.685 195.848C121.633 202.503 122.166 209.633 122.878 216.144C123.174 218.797 123.493 221.345 123.823 223.715C125.039 232.484 126.319 238.78 126.319 238.78L129.65 238.346L129.522 216.862L129.453 205.475L129.36 189.981L129.325 187.282L129.163 175.5L128.926 158.123L117.341 152.91C115.789 159.513 116.368 168.364 117.538 176.311Z" fill="#E4897B"/>
<path opacity="0.2" d="M148.537 176.419C145.576 178.463 141.58 179.692 138.846 180.352C138.214 178.192 137.398 175.764 136.546 173.402C134.363 167.314 131.965 161.597 131.965 161.597L139.778 148.362C139.778 148.362 142.958 157.172 145.785 166.469C146.822 169.85 147.783 173.303 148.537 176.419Z" fill="black"/>
<path opacity="0.2" d="M129.259 182.791C124.921 182.675 121.371 182.385 118.492 182.015C118.156 180.201 117.826 178.284 117.536 176.309C116.366 168.363 115.787 159.512 117.339 152.909L128.924 158.122L129.161 175.499L129.259 182.791Z" fill="black"/>
<path d="M149.097 175.268C141.851 179.525 120.537 181.331 120.537 181.331L117.051 171.531L117.431 181.225H116.398C116.398 181.225 108.609 154.873 118.957 137.6L137.492 136.17L139.519 145.716C139.519 145.716 144.741 159.397 149.097 175.268Z" fill="#263238"/>
<path d="M135.508 243.048C134.961 242.721 134.358 242.496 133.731 242.385C133.731 242.385 131.683 240.86 130.06 235.624L127.624 235.345C126.779 235.263 125.972 235.717 125.605 236.483C125.553 236.587 125.518 236.698 125.5 236.813C125.46 237.405 125.459 237.998 125.496 238.59C125.516 240.437 126.297 244.48 126.297 244.48L126.722 244.419L126.366 240.7C126.251 239.437 127.419 240.772 127.886 242.084C128.353 243.395 129.14 244.75 131.899 244.427C135.115 244.034 136.429 243.72 135.508 243.048Z" fill="#2E353A"/>
<path d="M129.385 233.766C129.385 233.766 130.254 236.137 131.412 238.743C132.57 241.35 133.729 242.385 133.729 242.385C133.729 242.385 131.717 243.038 130.63 241.776C129.544 240.514 127.686 235.958 125.604 236.481C125.604 236.481 125.756 235.937 126.068 235.421C126.38 234.906 129.385 233.766 129.385 233.766Z" fill="#E4897B"/>
<path d="M115.098 240.989C114.981 240.362 114.751 239.762 114.418 239.219C114.418 239.219 114.203 236.675 117.048 231.989L115.643 229.98C115.145 229.292 114.27 228.99 113.453 229.222C113.341 229.253 113.234 229.3 113.136 229.361C112.667 229.724 112.222 230.116 111.803 230.536C110.434 231.776 107.924 235.039 107.924 235.039L108.25 235.317L110.799 232.587C111.669 231.663 111.443 233.423 110.77 234.642C110.098 235.861 109.605 237.348 111.675 239.2C114.101 241.349 115.207 242.124 115.098 240.989Z" fill="#2E353A"/>
<path d="M117.994 230.253C117.994 230.253 116.794 232.476 115.61 235.07C114.425 237.665 114.418 239.219 114.418 239.219C114.418 239.219 112.595 238.145 112.82 236.496C113.045 234.846 115.226 230.436 113.454 229.222C113.454 229.222 113.962 228.976 114.555 228.868C115.149 228.759 117.994 230.253 117.994 230.253Z" fill="#E4897B"/>
<path d="M118.791 135.705L118.686 138.501L137.841 137.756L137.966 134.449L118.791 135.705Z" fill="#263238"/>
<path opacity="0.2" d="M118.791 135.705L118.686 138.501L137.841 137.756L137.966 134.449L118.791 135.705Z" fill="white"/>
<path d="M125.242 134.771L124.293 134.784L124.357 139.619L125.306 139.607L125.242 134.771Z" fill="#263238"/>
<path d="M133.519 134.783L129.328 134.999L129.492 138.177L133.683 137.961L133.519 134.783Z" fill="white"/>
<path d="M136.959 133.93L136.01 133.943L136.074 138.778L137.023 138.766L136.959 133.93Z" fill="#263238"/>
<path d="M135.336 112.409C135.698 114.311 136.167 115.729 136.624 120.335C137.085 124.222 137.982 128.653 138.426 135.075L118.273 136.17C117.797 130.63 116.317 125.885 110.873 114.111C109.612 111.381 110.982 108.351 113.819 107.602C114.577 107.401 115.384 107.207 116.216 107.033C119.452 106.36 122.109 105.832 125.047 105.636C126.021 105.571 127.035 105.534 128.007 105.515C131.514 105.448 134.687 108.999 135.336 112.409Z" fill="#1D5AFF"/>
<path opacity="0.7" d="M110.877 114.112C111.694 115.881 112.422 117.491 113.069 118.966C114.55 122.34 115.614 125.02 116.389 127.329C117.535 130.755 118.035 133.359 118.276 136.168L138.428 135.075C137.982 128.652 137.088 124.221 136.624 120.336C136.172 115.728 135.702 114.312 135.337 112.407C134.691 108.999 131.517 105.449 128.009 105.514C127.039 105.531 126.023 105.572 125.047 105.637C122.108 105.831 119.451 106.36 116.22 107.036C115.385 107.206 114.58 107.401 113.822 107.601C110.982 108.352 109.613 111.378 110.877 114.112Z" fill="white"/>
<path opacity="0.2" d="M113.068 118.966C114.549 122.339 115.613 125.019 116.389 127.329C122.507 122.98 118.023 117.144 118.023 117.144C116.248 117.079 114.543 117.82 113.068 118.966Z" fill="black"/>
<path d="M116.379 116.237C116.69 117.329 117.055 118.59 117.458 119.751C117.854 120.935 118.289 122.102 118.743 123.254C119.203 124.404 119.712 125.518 120.245 126.608C120.796 127.686 121.388 128.715 122.03 129.689L121.64 129.273C121.443 129.111 121.225 129.083 121.223 129.097C121.201 129.111 121.319 129.136 121.495 129.126C121.853 129.112 122.387 128.987 122.928 128.802C124.025 128.426 125.215 127.875 126.377 127.258C127.549 126.647 128.718 125.969 129.885 125.27C131.055 124.584 132.223 123.832 133.361 123.116L133.393 123.096C134.088 122.659 135.006 122.867 135.444 123.562C135.813 124.148 135.721 124.894 135.267 125.375C134.261 126.441 133.223 127.395 132.148 128.358C131.066 129.305 129.94 130.211 128.746 131.072C127.539 131.92 126.295 132.746 124.812 133.43C124.064 133.769 123.266 134.089 122.244 134.282C121.732 134.374 121.146 134.432 120.435 134.342C119.742 134.263 118.854 133.966 118.123 133.353C118.007 133.255 117.903 133.148 117.811 133.035L117.733 132.937C116.814 131.782 115.978 130.587 115.258 129.352C114.539 128.119 113.882 126.862 113.312 125.582C112.733 124.305 112.223 123.007 111.767 121.692C111.544 121.033 111.331 120.372 111.131 119.703C110.923 119.024 110.755 118.387 110.578 117.623C110.206 116.019 111.205 114.417 112.809 114.045C114.363 113.685 115.915 114.611 116.349 116.127L116.379 116.237Z" fill="#CE7A63"/>
<path d="M144.404 123.693L144.202 124.96C144.126 125.437 143.825 125.848 143.393 126.063L141.373 127.068C140.565 127.47 139.613 127.456 138.819 127.031L138.326 126.767C138.517 124.642 140.288 122.485 140.288 122.485L140.725 121.814C141.114 121.217 141.863 121.04 142.445 121.409L143.785 122.257C144.249 122.55 144.495 123.121 144.404 123.693Z" fill="#CE7A63"/>
<path d="M136.393 127.03H141.032C141.469 127.03 141.901 126.675 141.994 126.237L144.144 116.196C144.237 115.758 143.959 115.403 143.521 115.403H138.882C138.444 115.403 138.013 115.758 137.92 116.196L135.77 126.237C135.677 126.675 135.955 127.03 136.393 127.03Z" fill="#263238"/>
<path d="M118.51 104.761C118.345 105.413 118.087 105.971 117.699 106.383C117.699 106.383 120.414 105.93 126.256 109.41C127.896 106.982 126.638 106.236 126.638 106.236C123.97 105.66 123.388 103.973 123.453 102.163C123.465 101.746 123.512 101.323 123.582 100.906L119.48 97.7142L117.67 96.3099C117.799 96.7504 117.928 97.2441 118.052 97.7734C118.575 99.9774 118.992 102.798 118.51 104.761Z" fill="#CE7A63"/>
<path d="M130.5 88.3654C130.5 88.3654 134.451 84.2465 138.426 86.0288C142.4 87.8112 138.215 94.2108 136.665 97.6759C135.114 101.141 138.403 102.303 138.426 104.396C138.448 106.488 135.696 107.056 135.696 107.056C135.696 107.056 137.989 105.946 137.095 104.706C136.2 103.465 131.974 103.923 133.351 98.4635C134.728 93.0035 133.518 90.8768 131.449 92.2112C129.38 93.5463 130.5 88.3654 130.5 88.3654Z" fill="#263238"/>
<path d="M125.029 108.712C123.128 109.014 122.578 111.9 122.578 111.9C122.578 111.9 117.95 108.737 116.463 106.478C117.136 106.111 118.117 105.39 118.117 105.39C118.117 105.39 123.899 107.629 125.029 108.712Z" fill="#1D5AFF"/>
<path d="M126.835 108.376C126.835 108.376 128.489 108.793 129.122 111.098C129.49 106.896 127.519 106.214 127.519 106.214C127.519 106.214 126.915 105.797 125.793 105.993C127.316 106.766 126.835 108.376 126.835 108.376Z" fill="#1D5AFF"/>
<path opacity="0.5" d="M125.029 108.712C123.128 109.014 122.578 111.9 122.578 111.9C122.578 111.9 117.95 108.737 116.463 106.478C117.136 106.111 118.117 105.39 118.117 105.39C118.117 105.39 123.899 107.629 125.029 108.712Z" fill="white"/>
<path opacity="0.5" d="M126.835 108.376C126.835 108.376 128.489 108.793 129.122 111.098C129.49 106.896 127.519 106.214 127.519 106.214C127.519 106.214 126.915 105.797 125.793 105.993C127.316 106.766 126.835 108.376 126.835 108.376Z" fill="white"/>
<path d="M112.316 108.295C108.997 110.641 108.84 114.149 110.632 120.868C113.028 122.068 118.854 120.548 118.854 120.548C118.854 120.548 117.018 110.12 112.316 108.295Z" fill="#1D5AFF"/>
<path opacity="0.7" d="M112.316 108.295C108.997 110.641 108.84 114.149 110.632 120.868C113.028 122.068 118.854 120.548 118.854 120.548C118.854 120.548 117.018 110.12 112.316 108.295Z" fill="white"/>
<path opacity="0.2" d="M118.509 104.761C120.736 104.238 122.335 103.221 123.452 102.163C123.464 101.746 123.511 101.323 123.581 100.906L119.479 97.7142C118.979 97.7081 118.503 97.7317 118.051 97.7727C118.574 99.9774 118.992 102.798 118.509 104.761Z" fill="black"/>
<path d="M127.097 84.0481C127.097 84.0481 125.652 81.3013 120.037 82.7735C114.423 84.2458 111.674 91.9805 115.43 94.7858C119.187 97.5911 122.182 96.8782 122.182 96.8782L125.029 100.17C125.029 100.17 127.684 101.432 130.741 97.1788C133.798 92.9261 133.726 84.005 127.097 84.0481Z" fill="#263238"/>
<path d="M128.387 93.2032C126.873 97.6806 126.327 99.6022 123.391 101.437C118.974 104.197 113.798 101.675 113.942 96.9132C114.072 92.6268 116.527 86.0255 121.481 85.1767C126.362 84.3407 129.901 88.7265 128.387 93.2032Z" fill="#CE7A63"/>
<path d="M122.405 93.1393C122.294 93.5207 122.004 93.7863 121.758 93.7325C121.511 93.6787 121.401 93.3263 121.512 92.9449C121.623 92.5636 121.913 92.2979 122.159 92.3517C122.405 92.4055 122.516 92.758 122.405 93.1393Z" fill="#263238"/>
<path d="M117.635 91.9489C117.524 92.3302 117.234 92.5959 116.988 92.5421C116.741 92.4883 116.632 92.1358 116.742 91.7545C116.853 91.3731 117.143 91.1075 117.389 91.1613C117.636 91.2151 117.746 91.5675 117.635 91.9489Z" fill="#263238"/>
<path d="M117.491 91.2063L116.662 90.7456C116.662 90.7456 116.919 91.5615 117.491 91.2063Z" fill="#263238"/>
<path d="M118.859 93.105C118.859 93.105 117.742 94.6069 116.807 95.2459C117.168 95.8236 118.077 95.7933 118.077 95.7933L118.859 93.105Z" fill="#BA4D3C"/>
<path d="M119.837 97.6738C119.631 97.6664 119.414 97.6409 119.188 97.5911C119.127 97.5777 119.092 97.5171 119.11 97.4546C119.128 97.3934 119.191 97.3537 119.254 97.3665C120.907 97.727 122.022 96.7255 122.033 96.7154C122.081 96.6703 122.154 96.671 122.195 96.7161C122.237 96.7611 122.231 96.8338 122.183 96.8782C122.14 96.9179 121.244 97.7249 119.837 97.6738Z" fill="#263238"/>
<path d="M123.808 90.9043C123.749 90.8969 123.693 90.866 123.658 90.8128C123.11 89.9909 122.261 90.0306 122.251 90.0306C122.125 90.0367 122.022 89.9418 122.023 89.8154C122.025 89.689 122.13 89.5813 122.258 89.5733C122.303 89.5713 123.368 89.5208 124.049 90.5404C124.117 90.642 124.085 90.7853 123.977 90.8606C123.924 90.8976 123.864 90.911 123.808 90.9043Z" fill="#263238"/>
<path d="M116.396 89.011C116.339 89.011 116.283 88.9908 116.242 88.9484C116.156 88.861 116.163 88.7164 116.257 88.6243C117.201 87.7048 118.236 87.8824 118.28 87.8912C118.404 87.914 118.478 88.0331 118.446 88.1575C118.413 88.2819 118.287 88.364 118.164 88.3418C118.124 88.3344 117.319 88.2079 116.568 88.939C116.519 88.9868 116.457 89.011 116.396 89.011Z" fill="#263238"/>
<path d="M122.261 92.3968L121.432 91.936C121.432 91.936 121.689 92.7525 122.261 92.3968Z" fill="#263238"/>
<path d="M122.714 85.7961C122.714 85.7961 121.397 92.6934 126.047 95.7933C130.697 98.8932 132.44 88.2255 128.74 85.0731C125.039 81.9207 117.29 82.9282 115.43 87.4231C115.43 87.4231 117.445 85.0213 122.714 85.7961Z" fill="#263238"/>
<path d="M128.878 97.2656C128.113 98.0747 127.093 98.454 126.24 98.4635C124.955 98.4776 124.728 97.158 125.432 96.0428C126.065 95.0394 127.497 93.8227 128.619 94.3432C129.725 94.8557 129.753 96.3394 128.878 97.2656Z" fill="#CE7A63"/>
<path opacity="0.5" d="M136.393 127.03H141.032C141.469 127.03 141.901 126.675 141.994 126.237L144.144 116.196C144.237 115.758 143.959 115.403 143.521 115.403H138.882C138.444 115.403 138.013 115.758 137.92 116.196L135.77 126.237C135.677 126.675 135.955 127.03 136.393 127.03Z" fill="white"/>
<path d="M137.931 121.114L136.497 120.795C135.957 120.675 135.394 120.823 134.983 121.193L133.063 122.919C132.296 123.609 131.911 124.629 132.029 125.654L132.102 126.289C134.444 126.98 137.485 126.002 137.485 126.002L138.383 125.819C139.182 125.655 139.685 124.933 139.538 124.158L139.199 122.374C139.082 121.76 138.577 121.258 137.931 121.114Z" fill="#CE7A63"/>
</svg>
