<svg width="118" height="118" viewBox="0 0 118 118" fill="none" xmlns="http://www.w3.org/2000/svg">
<path d="M93.4165 14.75H88.4998C83.069 14.75 78.6665 19.1525 78.6665 24.5833V93.4167C78.6665 98.8475 83.069 103.25 88.4998 103.25H93.4165C98.8473 103.25 103.25 98.8475 103.25 93.4167V24.5833C103.25 19.1525 98.8473 14.75 93.4165 14.75Z" fill="#1D5AFF"/>
<path d="M61.4585 44.25H56.5418C51.111 44.25 46.7085 48.6525 46.7085 54.0833V93.4167C46.7085 98.8475 51.111 103.25 56.5418 103.25H61.4585C66.8893 103.25 71.2918 98.8475 71.2918 93.4167V54.0833C71.2918 48.6525 66.8893 44.25 61.4585 44.25Z" fill="#1D5AFF"/>
<path d="M29.5 78.6666H24.5833C19.1525 78.6666 14.75 83.0692 14.75 88.5V93.4166C14.75 98.8474 19.1525 103.25 24.5833 103.25H29.5C34.9308 103.25 39.3333 98.8474 39.3333 93.4166V88.5C39.3333 83.0692 34.9308 78.6666 29.5 78.6666Z" fill="#1D5AFF"/>
</svg>
