<svg width="118" height="118" viewBox="0 0 118 118" fill="none" xmlns="http://www.w3.org/2000/svg">
<path d="M59 54.0834V68.8334M59 88.5492L59.0492 88.4951" stroke="#1D5AFF" stroke-width="4" stroke-linecap="round" stroke-linejoin="round"/>
<path d="M9.8335 98.3334V44.25C9.8335 41.6421 10.8695 39.1409 12.7136 37.2968C14.5577 35.4527 17.0589 34.4167 19.6668 34.4167H98.3335C100.941 34.4167 103.443 35.4527 105.287 37.2968C107.131 39.1409 108.167 41.6421 108.167 44.25V98.3334C108.167 100.941 107.131 103.442 105.287 105.287C103.443 107.131 100.941 108.167 98.3335 108.167H19.6668C17.0589 108.167 14.5577 107.131 12.7136 105.287C10.8695 103.442 9.8335 100.941 9.8335 98.3334Z" stroke="#1D5AFF" stroke-width="4"/>
<path d="M41.792 12.2917L59.0003 29.5L76.2087 12.2917" stroke="#1D5AFF" stroke-width="4" stroke-linecap="round" stroke-linejoin="round"/>
</svg>
