<svg width="118" height="118" viewBox="0 0 118 118" fill="none" xmlns="http://www.w3.org/2000/svg">
<path d="M54.0833 106.815V61.8271L14.75 39.0875V78.5438C14.75 80.3465 15.181 81.9854 16.0431 83.4604C16.9051 84.9354 18.113 86.1236 19.6667 87.025L54.0833 106.815ZM63.9167 106.815L98.3333 87.025C99.8903 86.1236 101.1 84.9354 101.962 83.4604C102.824 81.9854 103.253 80.3465 103.25 78.5438V39.0875L63.9167 61.8271V106.815ZM83.4604 39.2104L97.9646 30.7292L63.9167 11.1854C62.3597 10.284 60.7208 9.83334 59 9.83334C57.2792 9.83334 55.6403 10.284 54.0833 11.1854L44.3729 16.7167L83.4604 39.2104ZM59 53.3458L73.6271 44.9875L34.6625 22.3708L19.9125 30.8521L59 53.3458Z" fill="#1D5AFF"/>
</svg>
