<svg width="118" height="118" viewBox="0 0 118 118" fill="none" xmlns="http://www.w3.org/2000/svg">
<path d="M49.1665 30.4834C49.1665 21.1417 43.2665 12.7834 34.4165 9.83337V28.025H19.6665V9.83337C10.8165 12.7834 4.9165 21.1417 4.9165 30.4834C4.9165 39.825 10.8165 48.1834 19.6665 51.1334V105.217C19.6665 107.183 20.6498 108.167 22.1248 108.167H31.9582C33.4332 108.167 34.4165 107.183 34.4165 105.708V51.625C43.2665 48.675 49.1665 40.3167 49.1665 30.4834ZM78.6665 39.3334C59.4915 39.825 44.2498 55.0667 44.2498 73.75C44.2498 92.925 59.4915 108.167 78.6665 108.167C97.8415 108.167 113.083 92.925 113.083 73.75C113.083 54.575 97.8415 39.3334 78.6665 39.3334ZM78.6665 98.3334C64.8998 98.3334 54.0832 87.5167 54.0832 73.75C54.0832 59.9834 64.8998 49.1667 78.6665 49.1667C92.4332 49.1667 103.25 59.9834 103.25 73.75C103.25 87.5167 92.4332 98.3334 78.6665 98.3334ZM73.7498 54.0834V78.6667L91.4498 89.4834L95.3832 83.5834L81.1248 75.225V54.0834H73.7498Z" fill="#1D5AFF"/>
</svg>
