<svg width="121" height="121" viewBox="0 0 121 121" fill="none" xmlns="http://www.w3.org/2000/svg">
<path d="M60.5 0L61.5231 27.9779C62.149 45.0946 75.7002 58.8219 92.5891 59.4476L121 60.5L92.5891 61.5524C75.7002 62.1781 62.149 75.9054 61.5231 93.0221L60.5 121L59.4769 93.0221C58.851 75.9054 45.2998 62.1781 28.4109 61.5524L0 60.5L28.4109 59.4476C45.2998 58.8219 58.851 45.0946 59.4769 27.9779L60.5 0Z" fill="black"/>
<path d="M90.3467 8.10542L77.4303 32.8534C69.5281 47.9942 74.4916 66.7495 88.8092 75.8499L112.895 91.1587L87.7707 77.6728C72.8359 69.656 54.3281 74.677 45.3418 89.1834L30.6533 112.894L43.5697 88.1465C51.4719 73.0058 46.5084 54.2504 32.1908 45.1501L8.10546 29.8412L33.2293 43.3271C48.1641 51.3439 66.6719 46.3229 75.6582 31.8165L90.3467 8.10542Z" fill="black"/>
<path d="M112.196 30.25L88.801 45.1369C74.4881 54.2447 69.534 73.0026 77.4438 88.1393L90.75 113.603L75.6452 89.1917C66.6662 74.6807 48.161 69.6501 33.2221 77.6591L8.80405 90.75L32.199 75.8631C46.5119 66.7553 51.466 47.9974 43.5562 32.8607L30.25 7.39743L45.3548 31.8083C54.3338 46.3193 72.839 51.3499 87.7779 43.3409L112.196 30.25Z" fill="black"/>
</svg>
