<svg width="80" height="80" viewBox="0 0 80 80" fill="none" xmlns="http://www.w3.org/2000/svg">
<path d="M40.0013 6.66667C21.6013 6.66667 6.66797 21.6 6.66797 40C6.66797 58.4 21.6013 73.3333 40.0013 73.3333C58.4013 73.3333 73.3346 58.4 73.3346 40C73.3346 21.6 58.4013 6.66667 40.0013 6.66667ZM64.868 30.4L55.6013 34.2333C54.7664 31.9871 53.4552 29.9481 51.7578 28.2565C50.0604 26.5648 48.017 25.2606 45.768 24.4333L49.6013 15.1667C56.6013 17.8333 62.168 23.4 64.868 30.4ZM40.0013 50C34.468 50 30.0013 45.5333 30.0013 40C30.0013 34.4667 34.468 30 40.0013 30C45.5346 30 50.0013 34.4667 50.0013 40C50.0013 45.5333 45.5346 50 40.0013 50ZM30.4346 15.1333L34.3346 24.4C32.059 25.2293 29.9915 26.5446 28.276 28.2543C26.5605 29.9641 25.2382 32.0272 24.4013 34.3L15.1346 30.4333C16.4713 26.9538 18.5239 23.7939 21.1595 21.1582C23.7952 18.5226 26.9551 16.47 30.4346 15.1333ZM15.1346 49.5667L24.4013 45.7333C25.2324 48.0002 26.5492 50.0579 28.2593 51.7623C29.9695 53.4667 32.0316 54.7765 34.3013 55.6L30.4013 64.8667C26.9292 63.5239 23.7769 61.4688 21.1475 58.8336C18.518 56.1984 16.4698 53.0417 15.1346 49.5667ZM49.6013 64.8667L45.768 55.6C48.0275 54.7628 50.0777 53.4435 51.7758 51.7339C53.474 50.0242 54.7794 47.9652 55.6013 45.7L64.868 49.6C63.5269 53.0677 61.4762 56.2169 58.8472 58.8459C56.2182 61.4749 53.069 63.5256 49.6013 64.8667Z" fill="white"/>
</svg>
