<svg width="80" height="80" viewBox="0 0 80 80" fill="none" xmlns="http://www.w3.org/2000/svg">
<path d="M16.6654 66.6667V60H21.9987L28.582 38.0833C29.0265 36.6389 29.8465 35.4867 31.042 34.6267C32.2376 33.7667 33.5565 33.3356 34.9987 33.3333H44.9987C46.4431 33.3333 47.7631 33.7644 48.9587 34.6267C50.1543 35.4889 50.9731 36.6411 51.4154 38.0833L57.9987 60H63.332V66.6667H16.6654ZM36.6654 26.6667V10H43.332V26.6667H36.6654ZM56.4987 34.9167L51.7487 30.1667L63.582 18.4167L68.2487 23.0833L56.4987 34.9167ZM59.9987 50V43.3333H76.6654V50H59.9987ZM23.4987 34.9167L11.7487 23.0833L16.4154 18.4167L28.2487 30.1667L23.4987 34.9167ZM3.33203 50V43.3333H19.9987V50H3.33203Z" fill="#FAFAFA"/>
</svg>
