<svg width="80" height="80" viewBox="0 0 80 80" fill="none" xmlns="http://www.w3.org/2000/svg">
<path d="M50.0004 73.3566H16.6671V66.69H50.0004V73.3566ZM73.3337 13.3333L57.5504 33.1833L56.8171 34.0833L38.0504 58.05C37.431 58.6694 36.6957 59.1607 35.8864 59.4959C35.0771 59.8311 34.2097 60.0037 33.3337 60.0037C32.4578 60.0037 31.5904 59.8311 30.7811 59.4959C29.9718 59.1607 29.2365 58.6694 28.6171 58.05C27.9977 57.4306 27.5063 56.6952 27.1711 55.8859C26.8359 55.0766 26.6634 54.2093 26.6634 53.3333C26.6634 52.4573 26.8359 51.5899 27.1711 50.7806C27.5063 49.9714 27.9977 49.236 28.6171 48.6166L73.3337 13.3333ZM8.81708 24.1133C4.00219 31.8251 2.27045 41.0682 3.96708 50H6.66708V46.6666C6.63076 40.1032 8.59586 33.6847 12.3004 28.2666L8.81708 24.1133ZM40.0004 6.66663C34.9024 6.66592 29.8608 7.73236 25.1998 9.79735C20.5388 11.8623 16.3616 14.8802 12.9371 18.6566L16.7504 23.2C21.2755 19.0391 27.1866 16.7103 33.3337 16.6666C39.514 16.7097 45.455 19.0614 49.9904 23.26L61.8237 13.92C55.5225 9.21081 47.8669 6.66637 40.0004 6.66663ZM62.7671 37.3333L61.9904 38.29L59.5637 41.39C59.8473 43.1347 59.9934 44.899 60.0004 46.6666V50H76.0337C77.6155 41.6579 76.22 33.0254 72.0904 25.6066L62.7671 37.3333Z" fill="white"/>
</svg>
