<svg width="80" height="80" viewBox="0 0 80 80" fill="none" xmlns="http://www.w3.org/2000/svg">
<path d="M39.9987 73.3333C32.2765 71.3888 25.9009 66.9577 20.872 60.04C15.8431 53.1222 13.3298 45.4422 13.332 37V16.6666L39.9987 6.66663L66.6654 16.6666V37C66.6654 45.4444 64.152 53.1255 59.1254 60.0433C54.0987 66.9611 47.7231 71.3911 39.9987 73.3333ZM39.9987 66.3333C45.3876 64.6666 49.8876 61.3744 53.4987 56.4566C57.1098 51.5388 59.2209 46.0533 59.832 40H39.9987V13.75L19.9987 21.25V38.5C19.9987 38.8888 20.0543 39.3888 20.1654 40H39.9987V66.3333Z" fill="#FAFAFA"/>
</svg>
