<svg width="80" height="80" viewBox="0 0 80 80" fill="none" xmlns="http://www.w3.org/2000/svg">
<path d="M74.4992 18.3334L59.9992 32.6667C59.9992 32.6667 55.6659 32.6667 51.3326 28.3334C46.9992 24 46.9992 19.6667 46.9992 19.6667L61.4992 5.16669C53.3326 3.16669 43.4992 5.83336 37.4992 11.8334C28.4992 20.8334 36.4992 32.3334 34.1659 34.6667C21.4992 47.8334 8.49922 57.8334 8.16588 58.3334C4.33255 62.1667 4.16588 68.3334 7.83255 72C11.4992 75.6667 17.6659 75.5 21.4992 71.6667C21.9992 71.1667 32.6659 57.6667 45.1659 45.1667C47.4992 42.8334 58.4992 51.3334 67.8326 42.1667C73.6659 36.1667 76.4992 26.5 74.4992 18.3334ZM15.6659 68.5C13.3326 68.5 11.4992 66.6667 11.4992 64.3334C11.4992 61.8334 13.3326 60 15.6659 60C17.9992 60 19.8326 61.8334 19.8326 64.1667C19.8326 66.5 17.9992 68.5 15.6659 68.5Z" fill="#FAFAFA"/>
</svg>
