<svg width="67" height="47" viewBox="0 0 67 47" fill="none" xmlns="http://www.w3.org/2000/svg">
<path d="M15 46.6667C10.8422 46.6667 7.30222 45.2211 4.38 42.33C1.45778 39.4389 -0.00221969 35.9033 2.53293e-06 31.7233C2.53293e-06 27.7745 1.35889 24.3522 4.07667 21.4567C6.79445 18.5589 9.98667 17.0011 13.6533 16.7833C14.4022 11.9278 16.6356 7.91667 20.3533 4.75C24.0711 1.58333 28.3978 0 33.3333 0C38.9044 0 43.6311 1.94 47.5133 5.82C51.3956 9.7 53.3356 14.4267 53.3333 20V23.3333H55.3833C58.5767 23.4356 61.2556 24.6078 63.42 26.85C65.5844 29.09 66.6667 31.8067 66.6667 35C66.6667 38.2689 65.5611 41.0311 63.35 43.2867C61.1389 45.54 58.3978 46.6667 55.1267 46.6667H37.05C35.5167 46.6667 34.2367 46.1533 33.21 45.1267C32.1811 44.0978 31.6667 42.8167 31.6667 41.2833V21.9333L24.6667 28.8933L22.3067 26.6L33.3333 15.5767L44.36 26.6033L42 28.8967L35 21.9367V41.2833C35 41.7945 35.2133 42.2645 35.64 42.6933C36.0689 43.12 36.5389 43.3333 37.05 43.3333H55C57.3333 43.3333 59.3056 42.5278 60.9167 40.9167C62.5278 39.3056 63.3333 37.3333 63.3333 35C63.3333 32.6667 62.5278 30.6945 60.9167 29.0833C59.3056 27.4722 57.3333 26.6667 55 26.6667H50V20C50 15.3889 48.3744 11.4578 45.1233 8.20667C41.8722 4.95556 37.9422 3.33111 33.3333 3.33333C28.7222 3.33333 24.7922 4.95889 21.5433 8.21C18.2944 11.4611 16.6689 15.3911 16.6667 20H14.8733C11.7778 20 9.08111 21.1389 6.78334 23.4167C4.48334 25.6944 3.33334 28.4444 3.33334 31.6667C3.33334 34.8889 4.47222 37.6389 6.75 39.9167C9.02778 42.1945 11.7778 43.3333 15 43.3333H23.3333V46.6667H15Z" fill="white"/>
</svg>
