<svg width="15" height="15" viewBox="0 0 15 15" fill="none" xmlns="http://www.w3.org/2000/svg">
<path d="M0.733983 0.736721C0.962543 0.508161 1.27254 0.379757 1.59577 0.379757C1.919 0.379758 2.229 0.508161 2.45756 0.736721L7.34101 5.62018L12.2245 0.736721C12.453 0.508161 12.763 0.379757 13.0863 0.379757C13.4095 0.379757 13.7195 0.508161 13.948 0.736721C14.1766 0.965281 14.305 1.27528 14.305 1.59851C14.305 1.92174 14.1766 2.23173 13.948 2.46029L9.06458 7.34375L13.948 12.2272C14.1766 12.4558 14.305 12.7658 14.305 13.089C14.305 13.4122 14.1766 13.7222 13.948 13.9508C13.7195 14.1793 13.4095 14.3077 13.0863 14.3077C12.763 14.3077 12.453 14.1793 12.2245 13.9508L7.34101 9.06732L2.45756 13.9508C2.229 14.1793 1.919 14.3077 1.59577 14.3077C1.27254 14.3077 0.962543 14.1793 0.733983 13.9508C0.505423 13.7222 0.377018 13.4122 0.377018 13.089C0.377019 12.7658 0.505423 12.4558 0.733983 12.2272L5.61744 7.34375L0.733983 2.46029C0.505423 2.23173 0.377019 1.92174 0.377018 1.59851C0.377018 1.27527 0.505423 0.965281 0.733983 0.736721Z" fill="#FF281B"/>
</svg>
